<svg width="39" height="38" viewBox="0 0 39 38" fill="none" xmlns="http://www.w3.org/2000/svg">
<path d="M32.8501 30.6785C17.4678 37.9992 7.92136 31.8742 1.81038 28.154C1.43223 27.9196 0.789517 28.2088 1.34716 28.8494C3.38303 31.3179 10.055 37.2678 18.7639 37.2678C27.4788 37.2678 32.6633 32.5126 33.3119 31.683C33.9561 30.8605 33.501 30.4068 32.85 30.6785H32.8501ZM37.1702 28.2927C36.7572 27.7548 34.6584 27.6545 33.3376 27.8168C32.0148 27.9744 30.0292 28.7828 30.2018 29.2683C30.2904 29.4501 30.4712 29.3686 31.3799 29.2868C32.2912 29.1959 34.8439 28.8738 35.3758 29.5691C35.9102 30.2693 34.5617 33.6046 34.3154 34.1425C34.0774 34.6804 34.4063 34.8191 34.8533 34.4609C35.2941 34.1027 36.0922 33.1753 36.6278 31.8628C37.1597 30.5432 37.4842 28.7023 37.1702 28.2927Z" fill="#FF9900"/>
<path fill-rule="evenodd" clip-rule="evenodd" d="M22.5045 15.7415C22.5045 17.6623 22.5531 19.2642 21.5822 20.97C20.7986 22.357 19.5573 23.21 18.1704 23.21C16.2772 23.21 15.1746 21.7675 15.1746 19.6387C15.1746 15.4363 18.94 14.6735 22.5045 14.6735V15.7415ZM27.4765 27.7591C27.1506 28.0503 26.679 28.0712 26.3116 27.8769C24.675 26.5178 24.3837 25.8868 23.4823 24.59C20.7778 27.35 18.8638 28.1751 15.355 28.1751C11.2081 28.1751 7.97656 25.6162 7.97656 20.4916C7.97656 16.4905 10.1472 13.7651 13.2329 12.4338C15.9097 11.2547 19.6475 11.0467 22.5045 10.7209V10.0829C22.5045 8.91089 22.5946 7.52402 21.9081 6.51164C21.3048 5.60318 20.1537 5.22869 19.1411 5.22869C17.2619 5.22869 15.5838 6.19255 15.1746 8.18968C15.0913 8.63361 14.7655 9.07051 14.3217 9.09127L9.53679 8.57821C9.13468 8.48787 8.6909 8.16206 8.80185 7.54478C9.90442 1.74762 15.1398 0 19.8275 0C22.2269 0 25.3613 0.638038 27.2545 2.45495C29.6539 4.69473 29.425 7.68349 29.425 10.9358V18.6193C29.425 20.9285 30.382 21.9409 31.2834 23.1892C31.6024 23.633 31.6718 24.1671 31.2695 24.4998C30.264 25.3388 28.4749 26.8992 27.4903 27.773L27.4764 27.7591" fill="black"/>
<path d="M32.8501 30.6785C17.4678 37.9992 7.92136 31.8742 1.81038 28.154C1.43223 27.9196 0.789517 28.2088 1.34716 28.8494C3.38303 31.3179 10.055 37.2678 18.7639 37.2678C27.4788 37.2678 32.6633 32.5126 33.3119 31.683C33.9561 30.8605 33.501 30.4068 32.85 30.6785H32.8501ZM37.1702 28.2927C36.7572 27.7548 34.6584 27.6545 33.3376 27.8168C32.0148 27.9744 30.0292 28.7828 30.2018 29.2683C30.2904 29.4501 30.4712 29.3686 31.3799 29.2868C32.2912 29.1959 34.8439 28.8738 35.3758 29.5691C35.9102 30.2693 34.5617 33.6046 34.3154 34.1425C34.0774 34.6804 34.4063 34.8191 34.8533 34.4609C35.2941 34.1027 36.0922 33.1753 36.6278 31.8628C37.1597 30.5432 37.4842 28.7023 37.1702 28.2927Z" fill="#232323"/>
<path fill-rule="evenodd" clip-rule="evenodd" d="M22.5045 15.7415C22.5045 17.6623 22.5531 19.2642 21.5822 20.97C20.7986 22.357 19.5573 23.21 18.1704 23.21C16.2772 23.21 15.1746 21.7675 15.1746 19.6387C15.1746 15.4363 18.94 14.6735 22.5045 14.6735V15.7415ZM27.4765 27.7591C27.1506 28.0503 26.679 28.0712 26.3116 27.8769C24.675 26.5178 24.3837 25.8868 23.4823 24.59C20.7778 27.35 18.8638 28.1751 15.355 28.1751C11.2081 28.1751 7.97656 25.6162 7.97656 20.4916C7.97656 16.4905 10.1472 13.7651 13.2329 12.4338C15.9097 11.2547 19.6475 11.0467 22.5045 10.7209V10.0829C22.5045 8.91089 22.5946 7.52402 21.9081 6.51164C21.3048 5.60318 20.1537 5.22869 19.1411 5.22869C17.2619 5.22869 15.5838 6.19255 15.1746 8.18968C15.0913 8.63361 14.7655 9.07051 14.3217 9.09127L9.53679 8.57821C9.13468 8.48787 8.6909 8.16206 8.80185 7.54478C9.90442 1.74762 15.1398 0 19.8275 0C22.2269 0 25.3613 0.638038 27.2545 2.45495C29.6539 4.69473 29.425 7.68349 29.425 10.9358V18.6193C29.425 20.9285 30.382 21.9409 31.2834 23.1892C31.6024 23.633 31.6718 24.1671 31.2695 24.4998C30.264 25.3388 28.4749 26.8992 27.4903 27.773L27.4764 27.7591" fill="#232323"/>
</svg>
