<svg width="39" height="38" viewBox="0 0 39 38" fill="none" xmlns="http://www.w3.org/2000/svg">
<path d="M31.0317 13.2509C30.1798 12.0666 28.2165 9.633 25.2034 6.01667C23.8956 4.44758 22.773 3.116 22.2204 2.46208C21.9637 2.15742 21.7061 1.85342 21.4478 1.55008L21.12 1.16217L20.9411 0.951583L20.9063 0.900917L20.8904 0.893L20.1304 0L19.1662 0.772667C16.7041 2.7455 14.6885 5.28675 13.3379 8.11933C12.5098 9.804 11.9699 11.4523 11.6865 13.148C11.6121 13.5296 11.5472 13.9222 11.4949 14.3165C11.164 14.2896 10.8283 14.2722 10.4943 14.2642C10.4658 14.2627 10.4388 14.2611 10.4008 14.2595C9.18233 14.2169 7.96457 14.3633 6.79084 14.6933L6.28893 14.8343L6.03084 15.2871C4.81959 17.4119 4.13401 19.8297 4.04851 22.2791C3.93768 25.4616 4.80376 28.5396 6.55493 31.1853C8.26809 33.7709 10.6874 35.7485 13.5533 36.9027L13.9269 37.0532L14.0393 37.0928L14.0441 37.0912C15.5396 37.633 17.111 37.9365 18.7007 37.9905C18.8812 37.9968 19.0617 38 19.2422 38C21.2578 38 23.2211 37.6058 25.0847 36.8252L25.0973 36.8315L25.5929 36.6019C28.1066 35.4392 30.2561 33.6137 31.8107 31.3215C33.4098 28.9623 34.3076 26.201 34.4089 23.3383C34.5277 19.9167 33.3908 16.5237 31.0317 13.2509ZM19.8169 23.8513C20.3363 25.821 20.2349 27.7147 19.5145 29.4848C17.7174 27.7115 16.4001 25.7608 15.5958 23.6819C14.736 21.4589 14.2183 19.3436 14.0536 17.3882C14.8136 17.6368 15.5134 17.9677 16.1357 18.373C17.928 19.5399 19.1662 21.3829 19.8169 23.8513ZM20.1447 33.3862C20.9078 33.9688 21.7122 34.5135 22.5403 35.0138C21.3195 35.3463 20.0623 35.492 18.7893 35.4461C18.5922 35.4391 18.3953 35.4275 18.1988 35.4113C18.9239 34.7874 19.5747 34.1082 20.1431 33.3862H20.1447ZM22.2774 23.2038C21.4604 20.1052 19.8597 17.7618 17.5243 16.2402C16.4998 15.5737 15.3313 15.067 14.0504 14.7361C14.0678 14.5239 14.0916 14.3117 14.1185 14.1027C14.1407 13.9238 14.166 13.7607 14.1913 13.6072C14.4019 12.5162 14.717 11.438 15.1239 10.4009C15.2807 10.0051 15.4501 9.61083 15.6322 9.22925L15.6385 9.21658C15.9188 8.64975 16.2338 8.07817 16.6043 7.467L16.75 7.22633L16.7453 7.22475C17.6066 5.87733 18.6405 4.64867 19.8201 3.56567L20.2761 4.10558C21.3401 5.36592 22.3408 6.55658 23.2496 7.6475C25.2937 10.1001 27.9458 13.3206 28.9686 14.7408C30.9905 17.5449 31.9658 20.4076 31.8661 23.2513C31.7885 25.46 31.1362 27.6133 29.974 29.4785C28.8752 31.2455 27.3441 32.7243 25.5407 33.7662C24.5337 33.2627 23.0723 32.4377 21.5206 31.2344C22.7714 28.7407 23.0279 26.0411 22.279 23.2038H22.2774ZM18.2003 31.749C17.0524 33.2358 15.6876 34.2032 14.8912 34.6877C14.7629 34.6418 14.6331 34.5927 14.5064 34.5404L14.4035 34.4992C12.0443 33.5239 10.0541 31.8772 8.64809 29.7334C7.21201 27.5421 6.50109 24.9945 6.59293 22.3662C6.65784 20.482 7.12809 18.6817 7.98943 17.0161C8.48976 16.9053 8.99959 16.8356 9.50943 16.8087L9.64243 16.8055C9.89893 16.8008 10.1554 16.8008 10.3993 16.8055C10.7587 16.8229 11.1181 16.8609 11.4712 16.9163C11.5868 19.3119 12.1758 21.8959 13.2208 24.5987C14.2293 27.2017 15.9029 29.6052 18.1988 31.7474L18.2003 31.749Z" fill="#232323"/>
</svg>
