<svg width="39" height="38" viewBox="0 0 39 38" fill="none" xmlns="http://www.w3.org/2000/svg">
<path d="M6.52849 28.8967C5.73833 28.8984 4.96187 28.6945 4.27844 28.3059C3.59502 27.9173 3.02911 27.3579 2.63854 26.6848C2.25394 26.0164 2.06214 25.2582 2.08366 24.4912C2.10519 23.7242 2.33924 22.9774 2.76073 22.3308L10.7714 10.004C11.1815 9.34146 11.7636 8.79748 12.4583 8.42757C13.1531 8.05766 13.9356 7.87508 14.7259 7.89848C15.5156 7.91703 16.2861 8.14084 16.9586 8.54702C17.631 8.95321 18.1813 9.52717 18.553 10.2102C19.2998 11.5939 19.2065 13.2586 18.312 14.5575L10.3064 26.8844C9.90045 27.5043 9.34134 28.0137 8.68093 28.3655C8.02051 28.7173 7.28016 28.9 6.52849 28.8967Z" fill="#232323"/>
<path d="M20.2665 28.8962C18.6508 28.8962 17.164 28.0496 16.3833 26.6892C15.9996 26.0227 15.8082 25.2664 15.8298 24.5014C15.8513 23.7365 16.0849 22.9917 16.5055 22.3469L24.501 10.0483C24.9049 9.37651 25.485 8.82283 26.1809 8.44472C26.8768 8.0666 27.6633 7.87782 28.4588 7.89794C30.0881 7.93287 31.5647 8.82595 32.3114 10.2229C33.0531 11.6199 32.9445 13.2947 32.0229 14.5902L24.0291 26.8888C23.6244 27.5061 23.0676 28.0135 22.41 28.3644C21.7524 28.7152 21.0152 28.8981 20.2665 28.8962Z" fill="#232323"/>
<path d="M33.7023 29.0028C35.98 29.0028 37.8264 27.2315 37.8264 25.0463C37.8264 22.8612 35.98 21.0898 33.7023 21.0898C31.4246 21.0898 29.5781 22.8612 29.5781 25.0463C29.5781 27.2315 31.4246 29.0028 33.7023 29.0028Z" fill="#232323"/>
</svg>
