<svg width="39" height="38" viewBox="0 0 39 38" fill="none" xmlns="http://www.w3.org/2000/svg">
<path d="M19.5 0C8.72625 0 0 8.72325 0 19.4824C0 28.092 5.58675 35.393 13.3331 37.9663C14.3081 38.1498 14.6656 37.5475 14.6656 37.0296C14.6656 36.5669 14.6494 35.3411 14.6413 33.7176C9.217 34.893 8.073 31.1037 8.073 31.1037C7.18575 28.8551 5.90363 28.2544 5.90363 28.2544C4.13725 27.0464 6.04013 27.0708 6.04013 27.0708C7.99825 27.2072 9.02688 29.0775 9.02688 29.0775C10.7656 32.0567 13.5915 31.1962 14.7063 30.6978C14.8818 29.4379 15.3839 28.5791 15.9413 28.092C11.6106 27.6049 7.059 25.9295 7.059 18.4645C7.059 16.3376 7.81463 14.6004 9.06588 13.2367C8.8465 12.7447 8.18838 10.764 9.2365 8.08033C9.2365 8.08033 10.8696 7.55755 14.599 10.0773C16.159 9.64379 17.8165 9.42949 19.474 9.41974C21.1315 9.42949 22.789 9.64379 24.349 10.0773C28.054 7.55755 29.6871 8.08033 29.6871 8.08033C30.7353 10.764 30.0771 12.7447 29.8821 13.2367C31.1253 14.6004 31.8809 16.3376 31.8809 18.4645C31.8809 25.9489 27.3228 27.5968 22.984 28.0758C23.6665 28.6602 24.3003 29.8552 24.3003 31.68C24.3003 34.2874 24.2759 36.3818 24.2759 37.0149C24.2759 37.5264 24.6171 38.1352 25.6165 37.9404C33.4181 35.3849 39 28.079 39 19.4824C39 8.72325 30.2689 0 19.5 0Z" fill="#232323"/>
</svg>
