<svg width="39" height="38" viewBox="0 0 39 38" fill="none" xmlns="http://www.w3.org/2000/svg">
<g clip-path="url(#clip0_4003_3453)">
<path d="M36.936 4.74732V33.2453C36.9497 35.8535 34.8465 37.979 32.2383 37.9927C32.0437 37.9938 31.8493 37.9828 31.6561 37.9598C29.2368 37.602 27.4639 35.4964 27.5228 33.0515V4.9408C27.4644 2.49329 29.2417 0.386821 31.6643 0.0324707C34.2548 -0.270738 36.6008 1.5835 36.9041 4.17415C36.9262 4.36431 36.937 4.5559 36.936 4.74732ZM7.31599 28.5869C4.71663 28.5869 2.60938 30.6944 2.60938 33.2936C2.60937 35.8929 4.71663 38.0002 7.31599 38.0002C9.91535 38.0002 12.0226 35.8929 12.0226 33.2936C12.0226 30.6942 9.91519 28.5869 7.31599 28.5869ZM19.7813 14.3214C19.7542 14.3214 19.7271 14.3214 19.7 14.3219C17.0883 14.465 15.062 16.6557 15.1226 19.2708V31.913C15.1226 35.3441 16.6323 37.427 18.8442 37.8711C21.3963 38.3882 23.8843 36.7387 24.4014 34.1867C24.4648 33.8742 24.4964 33.5561 24.4953 33.237V19.0527C24.5001 16.4444 22.3895 14.3262 19.7813 14.3214Z" fill="#232323"/>
</g>
<defs>
<clipPath id="clip0_4003_3453">
<rect width="38" height="38" fill="white" transform="translate(0.773438)"/>
</clipPath>
</defs>
</svg>
