<svg width="39" height="38" viewBox="0 0 39 38" fill="none" xmlns="http://www.w3.org/2000/svg">
<g clip-path="url(#clip0_4003_3447)">
<path d="M19.9802 3.76765C16.674 3.69102 13.4375 4.72433 10.7874 6.70261C8.13723 8.68088 6.22633 11.49 5.35974 14.6816C5.27266 14.7021 5.44366 14.6499 5.35974 14.6816C-0.775675 18.7206 -0.850092 27.5224 4.96866 32.0048L4.97816 31.9937L4.96707 32.0412C6.82573 33.4443 9.09354 34.1986 11.4223 34.1882H19.6129L19.6604 34.2357H27.8811C38.4688 34.3196 42.7264 20.6111 33.9532 14.6816C33.1976 11.8956 31.6452 9.39069 29.4866 7.47423L29.4185 7.54231L29.428 7.46315C26.8127 5.15634 23.4666 3.84751 19.9802 3.76765ZM19.4134 10.3321C21.3831 10.2688 23.4002 10.9148 24.9329 12.153C25.876 12.9401 26.6305 13.9289 27.1407 15.0464C27.651 16.1639 27.904 17.3816 27.8811 18.6098V19.43C33.4702 19.3191 33.4702 27.7615 27.8811 27.6522H19.6588L19.6462 27.6665V27.6031H11.4223C10.8397 27.6031 10.2638 27.479 9.73291 27.239C9.1272 26.9647 8.59862 26.5476 8.18945 26.0235C7.78028 25.4994 7.50431 24.8839 7.3852 24.2298C7.26609 23.5756 7.30739 22.9023 7.50556 22.2676C7.70374 21.6329 8.05287 21.0558 8.52304 20.5856C8.9932 20.1154 9.57037 19.7663 10.2051 19.5681C10.8398 19.37 11.513 19.3287 12.1672 19.4478C12.8214 19.5669 13.4369 19.8428 13.961 20.252C14.4851 20.6612 14.9021 21.1914 15.1764 21.7971L19.947 17.0281C18.3618 14.9617 16.0763 13.5456 13.5202 13.046C13.5487 13.0301 13.5836 13.0048 13.6057 13.0096C14.346 12.1974 15.2417 11.5421 16.2399 11.0825C17.238 10.6228 18.3182 10.3682 19.4166 10.3337L19.4134 10.3321Z" fill="#232323"/>
</g>
<defs>
<clipPath id="clip0_4003_3447">
<rect width="38" height="38" fill="white" transform="translate(0.679688)"/>
</clipPath>
</defs>
</svg>
