<svg width="39" height="38" viewBox="0 0 39 38" fill="none" xmlns="http://www.w3.org/2000/svg">
<g clip-path="url(#clip0_4003_3461)">
<path d="M5.43278 6.61834C7.21558 4.54036 9.42704 2.87288 11.9153 1.73044C14.4035 0.588003 17.1095 -0.00232402 19.8474 6.87577e-06C30.3513 6.87577e-06 38.8633 8.51201 38.8633 19.0143C38.8633 24.7776 36.2983 29.944 32.2449 33.4305L5.43436 6.61834H5.43278ZM3.7402 8.90784L29.9539 35.1215C29.1242 35.644 28.2518 36.1032 27.3414 36.4927L2.36903 11.5219C2.76011 10.6115 3.21928 9.73751 3.7402 8.90784ZM1.37311 14.5081L24.3552 37.4902C23.231 37.7625 22.0704 37.9367 20.8798 38L0.863281 17.9835C0.925545 16.8118 1.09622 15.6483 1.37311 14.5081ZM1.10395 22.2063L16.657 37.7609C12.7731 37.0973 9.19091 35.2446 6.40478 32.4585C3.61864 29.6724 1.76594 26.0902 1.10236 22.2063H1.10395Z" fill="#232323"/>
</g>
<defs>
<clipPath id="clip0_4003_3461">
<rect width="38" height="38" fill="white" transform="translate(0.863281)"/>
</clipPath>
</defs>
</svg>
