<svg width="39" height="38" viewBox="0 0 39 38" fill="none" xmlns="http://www.w3.org/2000/svg">
<path d="M13.2913 2.59024H23.598L12.8986 34.2913C12.7886 34.6171 12.5793 34.9002 12.3 35.1007C12.0207 35.3012 11.6856 35.4091 11.3418 35.4092H3.32061C3.06011 35.4092 2.80335 35.3472 2.57157 35.2283C2.33979 35.1094 2.13965 34.9371 1.98771 34.7255C1.83577 34.5139 1.73639 34.2691 1.69779 34.0115C1.6592 33.7539 1.6825 33.4908 1.76577 33.244L11.734 3.70807C11.844 3.38219 12.0534 3.09899 12.3327 2.89838C12.6121 2.69778 12.9473 2.59026 13.2913 2.59024Z" fill="url(#paint0_linear_4003_3434)"/>
<path d="M28.2653 23.8535H11.9213C11.7694 23.8533 11.6209 23.8989 11.4952 23.9844C11.3696 24.0698 11.2726 24.1911 11.2168 24.3324C11.1611 24.4738 11.1492 24.6287 11.1827 24.7769C11.2162 24.9251 11.2936 25.0597 11.4048 25.1633L21.907 34.9657C22.2128 35.251 22.6154 35.4096 23.0336 35.4095H32.2881L28.2653 23.8535Z" fill="#0078D4"/>
<path d="M13.2892 2.58986C12.9415 2.58852 12.6025 2.69839 12.3217 2.90342C12.0409 3.10845 11.833 3.39789 11.7284 3.72946L1.77595 33.2167C1.68708 33.4644 1.65918 33.7299 1.69461 33.9907C1.73004 34.2514 1.82776 34.4999 1.9795 34.7149C2.13124 34.9299 2.33254 35.1053 2.56637 35.226C2.8002 35.3468 3.05968 35.4095 3.32287 35.4088H11.5511C11.8575 35.354 12.1439 35.2189 12.3811 35.0172C12.6182 34.8156 12.7976 34.5546 12.9008 34.2609L14.8856 28.4116L21.9749 35.024C22.272 35.2698 22.6447 35.4057 23.0302 35.4088H32.2504L28.2065 23.8528L16.4182 23.8556L23.6331 2.58986H13.2892Z" fill="#232323"/>
<path d="M26.4556 3.70609C26.3458 3.38073 26.1367 3.09801 25.8578 2.89775C25.5789 2.6975 25.2441 2.5898 24.9008 2.58984H13.4141C13.7574 2.58986 14.0921 2.69758 14.3711 2.89783C14.65 3.09807 14.8591 3.38077 14.9689 3.70609L24.9376 33.2432C25.0209 33.4901 25.0442 33.7532 25.0057 34.0109C24.9671 34.2686 24.8678 34.5134 24.7158 34.7251C24.5639 34.9367 24.3637 35.1092 24.1319 35.2281C23.9001 35.3471 23.6433 35.4092 23.3827 35.4092H34.8698C35.1303 35.4091 35.3871 35.347 35.6189 35.228C35.8506 35.109 36.0507 34.9366 36.2026 34.7249C36.3545 34.5132 36.4539 34.2685 36.4924 34.0108C36.5309 33.7532 36.5076 33.49 36.4242 33.2432L26.4556 3.70609Z" fill="#232323"/>
<defs>
<linearGradient id="paint0_linear_4003_3434" x1="17.0477" y1="5.02224" x2="6.34398" y2="36.6438" gradientUnits="userSpaceOnUse">
<stop stop-color="#114A8B"/>
<stop offset="1" stop-color="#0669BC"/>
</linearGradient>
</defs>
</svg>
