<svg width="37" height="38" viewBox="0 0 37 38" fill="none" xmlns="http://www.w3.org/2000/svg">
<path d="M6.55927 6.66227C7.74044 7.62177 8.18377 7.54894 10.4036 7.40011L31.3274 6.14452C31.7707 6.14452 31.4018 5.70119 31.2545 5.62836L27.7775 3.11561C27.1125 2.59944 26.2243 2.00727 24.5238 2.15452L4.26502 3.63336C3.52719 3.70619 3.37835 4.07669 3.67285 4.37119L6.55927 6.66227ZM7.81485 11.5389V33.5536C7.81485 34.7364 8.40544 35.1797 9.73702 35.1053L32.7318 33.7753C34.0634 33.7024 34.2122 32.8886 34.2122 31.9275V10.0601C34.2122 9.10061 33.8433 8.58286 33.0279 8.65569L8.9976 10.0601C8.11094 10.1345 7.81485 10.5794 7.81485 11.5389ZM30.5151 12.7185C30.6624 13.3835 30.5151 14.0485 29.8501 14.1245L28.7418 14.3462V30.5975C27.7791 31.1153 26.8924 31.4114 26.153 31.4114C24.9687 31.4114 24.6726 31.0409 23.7859 29.9341L16.539 18.5563V29.5636L18.8317 30.0829C18.8317 30.0829 18.8317 31.4129 16.9824 31.4129L11.8809 31.7074C11.7336 31.4129 11.8809 30.6735 12.3986 30.5263L13.7286 30.1574V15.6018L11.884 15.4529C11.7352 14.7879 12.1057 13.8284 13.1396 13.754L18.6116 13.3851L26.1546 24.9102V14.7135L24.2309 14.4934C24.0836 13.6796 24.6742 13.089 25.4136 13.0162L30.5151 12.7185ZM2.56452 1.63836L23.6387 0.0866906C26.2259 -0.134976 26.8924 0.0122739 28.5185 1.19502L35.2461 5.92286C36.3544 6.73511 36.7249 6.95677 36.7249 7.84344V33.7753C36.7249 35.3998 36.1344 36.3624 34.0649 36.5081L9.58977 37.9869C8.0381 38.0614 7.2971 37.8397 6.48327 36.8042L1.52902 30.3759C0.642354 29.1931 0.273438 28.308 0.273438 27.2725V4.22236C0.273438 2.89394 0.865604 1.78402 2.56452 1.63836Z" fill="#232323"/>
</svg>
