<svg width="39" height="38" viewBox="0 0 39 38" fill="none" xmlns="http://www.w3.org/2000/svg">
<g clip-path="url(#clip0_4003_3458)">
<path d="M19.6463 1.25549C21.2138 1.25549 26.529 1.69249 29.0354 7.30541C29.873 9.19432 29.6735 12.4022 29.5089 14.9798L29.5041 15.0748C29.4851 15.3598 29.4693 15.6211 29.4566 15.8823C29.5754 15.9536 29.778 16.0248 30.0915 16.0248C30.5665 15.9995 31.1349 15.8348 31.7271 15.5482C31.9884 15.4089 32.2718 15.3836 32.4618 15.3836C32.7499 15.3836 33.0302 15.4295 33.2677 15.5261C33.9802 15.762 34.4299 16.2845 34.4299 16.8529C34.4536 17.5638 33.8124 18.1813 32.5093 18.7022C32.3684 18.7482 32.1784 18.821 31.9646 18.8907C31.2521 19.1044 30.1612 19.4607 29.854 20.1732C29.7115 20.5278 29.7574 21.0028 30.044 21.5475L30.0678 21.5712C30.1628 21.7866 32.4839 27.0733 37.6535 27.9267C38.0573 27.9964 38.3423 28.3542 38.3185 28.7327C38.3185 28.8514 38.2948 28.9686 38.2473 29.0889C37.8673 29.9898 36.2317 30.6532 33.2661 31.1013C33.1727 31.2454 33.0761 31.6951 33.0064 32.0038C32.9605 32.2872 32.8893 32.5738 32.7943 32.8794C32.6739 33.3085 32.3668 33.5207 31.9155 33.5207H31.868C31.6543 33.5207 31.3724 33.4716 31.0162 33.4035C30.4462 33.2847 29.8049 33.1897 29.0006 33.1897C28.5256 33.1897 28.0522 33.2135 27.555 33.3069C26.605 33.4716 25.7769 34.0416 24.8269 34.7066C23.4764 35.655 21.9358 36.7459 19.6114 36.7459C19.5164 36.7459 19.423 36.7222 19.3264 36.7222H19.0905C16.7662 36.7222 15.2478 35.6534 13.8988 34.6828C12.9504 34.0178 12.146 33.4494 11.196 33.2832C10.6989 33.2119 10.2001 33.166 9.72669 33.166C8.87169 33.166 8.20986 33.3069 7.71269 33.4019C7.37861 33.47 7.09361 33.5191 6.85769 33.5191C6.26553 33.5191 6.02961 33.1644 5.93461 32.8541C5.83803 32.5501 5.79211 32.2382 5.72086 31.9563C5.64803 31.6697 5.55461 31.1742 5.45803 31.0538C2.42119 30.7023 0.787194 30.0373 0.408777 29.1127C0.359694 29.0129 0.326444 28.8752 0.321694 28.7564C0.297944 28.3717 0.582944 28.0202 0.986694 27.9505C6.15469 27.0955 8.47586 21.8087 8.57244 21.5855L8.59778 21.5396C8.88278 20.9933 8.95244 20.5183 8.78619 20.1637C8.47744 19.4765 7.38653 19.1218 6.67719 18.8827C6.48561 18.8368 6.29719 18.7656 6.12936 18.6943C4.37661 18.0056 4.13911 17.2218 4.23411 16.6787C4.37661 15.9203 5.30128 15.4232 6.08344 15.4232C6.31461 15.4232 6.51094 15.4691 6.68986 15.5403C7.35486 15.8475 7.93911 16.0153 8.43786 16.0153C8.80836 16.0153 9.04586 15.9203 9.17411 15.8491L9.10128 14.9482C8.94611 12.3737 8.74503 9.16741 9.58736 7.28957C12.0241 1.70516 17.3235 1.27766 18.8879 1.27766L19.5513 1.25391L19.6463 1.25549Z" fill="#232323"/>
</g>
<defs>
<clipPath id="clip0_4003_3458">
<rect width="38" height="38" fill="white" transform="translate(0.320312)"/>
</clipPath>
</defs>
</svg>
