<svg width="12" height="14" viewBox="0 0 12 14" fill="none" xmlns="http://www.w3.org/2000/svg">
<path d="M6.30316 13.1929C5.29978 13.1929 4.40969 13.0553 3.63287 12.7802C2.8593 12.5083 2.2071 12.107 1.67628 11.5762C1.14546 11.0486 0.742489 10.4012 0.467368 9.63413C0.192248 8.86703 0.0546875 7.9915 0.0546875 7.00754C0.0546875 6.04947 0.193866 5.18851 0.472223 4.42464C0.750581 3.66078 1.15517 3.0102 1.68599 2.47291C2.22005 1.93238 2.86901 1.51969 3.63287 1.23486C4.39674 0.950033 5.26418 0.807617 6.23519 0.807617C7.16413 0.807617 7.98302 0.953269 8.69186 1.24457C9.4007 1.53588 9.99625 1.93561 10.4785 2.44378C10.964 2.95194 11.3298 3.53455 11.5758 4.1916C11.8218 4.84865 11.9448 5.54293 11.9448 6.27443C11.9448 6.78583 11.9124 7.2859 11.8477 7.77464C11.7829 8.26015 11.6632 8.70034 11.4884 9.09522C11.3168 9.48686 11.0676 9.80082 10.7407 10.0371C10.417 10.2701 9.99625 10.3915 9.47838 10.4012C9.20326 10.4109 8.93623 10.3786 8.67729 10.3041C8.41835 10.2297 8.19826 10.1099 8.017 9.94486C7.83575 9.77655 7.7257 9.56293 7.68686 9.30399H7.6286C7.55091 9.49495 7.42145 9.67297 7.24019 9.83805C7.05893 9.99988 6.82751 10.1294 6.54592 10.2265C6.26756 10.3203 5.94389 10.3592 5.5749 10.343C5.16708 10.3268 4.79971 10.2345 4.4728 10.0662C4.14589 9.89793 3.86592 9.66488 3.63287 9.3671C3.40307 9.06933 3.22667 8.71653 3.10367 8.3087C2.98068 7.90087 2.91918 7.44773 2.91918 6.94928C2.91918 6.47025 2.98877 6.04138 3.12795 5.66269C3.26713 5.28075 3.45647 4.95223 3.69599 4.67711C3.93874 4.39875 4.2171 4.17865 4.53106 4.01682C4.84502 3.85498 5.17679 3.75303 5.52635 3.71095C5.86621 3.67211 6.17855 3.68182 6.46338 3.74008C6.74821 3.79834 6.98449 3.88735 7.17222 4.00711C7.36319 4.12687 7.48294 4.25795 7.53149 4.40037H7.59461V3.8566H8.78896V8.36211C8.78896 8.61781 8.85531 8.83467 8.98802 9.01268C9.12396 9.1907 9.31654 9.27971 9.56577 9.27971C9.86031 9.27971 10.0901 9.17128 10.2552 8.95442C10.4235 8.73756 10.5416 8.40418 10.6096 7.95428C10.6808 7.50438 10.7164 6.92824 10.7164 6.22587C10.7164 5.73389 10.6501 5.27104 10.5174 4.83733C10.3879 4.40037 10.1953 4.00549 9.93961 3.65269C9.68714 3.29665 9.37642 2.99078 9.00743 2.73508C8.63845 2.47938 8.21768 2.28194 7.74512 2.14276C7.27579 2.00358 6.7563 1.93399 6.18664 1.93399C5.41307 1.93399 4.72526 2.05375 4.12324 2.29327C3.52121 2.52955 3.01304 2.87102 2.59874 3.31769C2.18768 3.76435 1.87534 4.30003 1.66172 4.92472C1.45133 5.54616 1.34614 6.24368 1.34614 7.01725C1.34614 7.82319 1.45457 8.53851 1.67143 9.16319C1.88829 9.78464 2.20872 10.309 2.63273 10.7362C3.05674 11.1635 3.58109 11.4872 4.20577 11.7072C4.83046 11.9306 5.55063 12.0422 6.36628 12.0422C6.72879 12.0422 7.08483 12.0099 7.43439 11.9451C7.78396 11.8836 8.09468 11.8124 8.36657 11.7315C8.64169 11.6538 8.84722 11.5907 8.98316 11.5422L9.32302 12.6054C9.12234 12.6993 8.85531 12.7915 8.52193 12.8822C8.19178 12.9728 7.83251 13.0472 7.4441 13.1055C7.05893 13.1638 6.67862 13.1929 6.30316 13.1929ZM5.8565 9.15348C6.27727 9.15348 6.6155 9.06933 6.8712 8.90102C7.13014 8.73271 7.31625 8.48186 7.42954 8.14848C7.54606 7.81186 7.60432 7.39109 7.60432 6.88616C7.60108 6.39418 7.53797 6.00254 7.41497 5.71124C7.29521 5.4167 7.10749 5.20631 6.85178 5.08008C6.59932 4.95061 6.27403 4.88588 5.87592 4.88588C5.51017 4.88588 5.19782 4.97489 4.93889 5.1529C4.68319 5.33092 4.48737 5.57206 4.35142 5.87631C4.21872 6.18056 4.15075 6.5188 4.14751 6.89102C4.15075 7.28266 4.20577 7.65165 4.31258 7.99798C4.42263 8.34107 4.60065 8.61942 4.84664 8.83305C5.09587 9.04667 5.43249 9.15348 5.8565 9.15348Z" fill="#7C7C7C"/>
</svg>
