<svg width="13" height="11" viewBox="0 0 13 11" fill="none" xmlns="http://www.w3.org/2000/svg">
<path fill-rule="evenodd" clip-rule="evenodd" d="M6.66641 3.5149C5.47747 3.5149 4.51364 4.47873 4.51364 5.66768C4.51364 6.85663 5.47747 7.82046 6.66641 7.82046C7.85536 7.82046 8.81919 6.85663 8.81919 5.66768C8.81919 4.47873 7.85536 3.5149 6.66641 3.5149ZM5.37475 5.66768C5.37475 4.95431 5.95305 4.37601 6.66641 4.37601C7.37978 4.37601 7.95808 4.95431 7.95808 5.66768C7.95808 6.38105 7.37978 6.95935 6.66641 6.95935C5.95305 6.95935 5.37475 6.38105 5.37475 5.66768Z" fill="#020203"/>
<path fill-rule="evenodd" clip-rule="evenodd" d="M6.66641 0.644531C4.07497 0.644531 2.32945 2.19694 1.31637 3.5131L1.2981 3.53683C1.06898 3.83439 0.857966 4.10845 0.714808 4.4325C0.561506 4.77951 0.495117 5.15772 0.495117 5.66768C0.495117 6.17764 0.561506 6.55585 0.714808 6.90286C0.857967 7.22691 1.06899 7.50097 1.2981 7.79853L1.31637 7.82226C2.32945 9.13842 4.07497 10.6908 6.66641 10.6908C9.25786 10.6908 11.0034 9.13842 12.0165 7.82226L12.0347 7.79854C12.2638 7.50098 12.4749 7.22692 12.618 6.90286C12.7713 6.55585 12.8377 6.17764 12.8377 5.66768C12.8377 5.15772 12.7713 4.77951 12.618 4.4325C12.4749 4.10844 12.2638 3.83438 12.0347 3.53682L12.0165 3.5131C11.0034 2.19694 9.25786 0.644531 6.66641 0.644531ZM1.99874 4.03834C2.93415 2.8231 4.45643 1.50564 6.66641 1.50564C8.87639 1.50564 10.3987 2.8231 11.3341 4.03834C11.5859 4.36544 11.7333 4.5609 11.8303 4.78048C11.921 4.98569 11.9766 5.23651 11.9766 5.66768C11.9766 6.09885 11.921 6.34967 11.8303 6.55488C11.7333 6.77446 11.5859 6.96992 11.3341 7.29702C10.3987 8.51226 8.87639 9.82972 6.66641 9.82972C4.45643 9.82972 2.93415 8.51226 1.99874 7.29702C1.74696 6.96992 1.59948 6.77446 1.50248 6.55488C1.41182 6.34967 1.35623 6.09885 1.35623 5.66768C1.35623 5.23651 1.41182 4.98569 1.50248 4.78048C1.59948 4.5609 1.74696 4.36544 1.99874 4.03834Z" fill="#020203"/>
</svg>
