<svg width="1436" height="1049" viewBox="0 0 1436 1049" fill="none" xmlns="http://www.w3.org/2000/svg">
<g clip-path="url(#clip0_4003_2611)">
<rect width="1436" height="1049" fill="white"/>
<g filter="url(#filter0_n_4003_2611)">
<path d="M1239.22 1061.7C1342.89 1026.88 1455.14 1082.69 1489.96 1186.35L1864 2300.05C1898.81 2403.72 1843 2515.97 1739.34 2550.79L1239.22 1061.7Z" fill="url(#paint0_linear_4003_2611)"/>
<path d="M1186.45 1007.45C1285.9 961.991 1403.38 1005.76 1448.84 1105.22L1937.25 2173.72C1982.7 2273.17 1938.93 2390.65 1839.48 2436.11L1186.45 1007.45Z" fill="url(#paint1_linear_4003_2611)"/>
<path d="M1128.73 959.554C1222.89 903.946 1344.3 935.198 1399.91 1029.36L1997.32 2040.95C2052.93 2135.1 2021.68 2256.51 1927.52 2312.12L1128.73 959.554Z" fill="url(#paint2_linear_4003_2611)"/>
<path d="M1066.81 917.489C1154.64 852.344 1278.65 870.734 1343.79 958.564L2043.68 1902.16C2108.82 1989.99 2090.43 2114 2002.6 2179.15L1066.81 917.489Z" fill="url(#paint3_linear_4003_2611)"/>
<path d="M1000.14 882.806C1080.67 808.838 1205.93 814.164 1279.89 894.703L2074.58 1759.98C2148.55 1840.52 2143.23 1965.77 2062.69 2039.74L1000.14 882.806Z" fill="url(#paint4_linear_4003_2611)"/>
<path d="M931.036 854.441C1003.4 772.458 1128.53 764.663 1210.51 837.03L2091.28 1614.49C2173.26 1686.86 2181.06 1811.98 2108.69 1893.97L931.036 854.441Z" fill="url(#paint5_linear_4003_2611)"/>
<path d="M858.859 833.789C922.261 744.689 1045.89 723.857 1134.99 787.259L2092.2 1468.39C2181.3 1531.8 2202.13 1655.42 2138.73 1744.52L858.859 833.789Z" fill="url(#paint6_linear_4003_2611)"/>
<path d="M785.142 820.75C838.882 725.512 959.654 691.871 1054.89 745.612L2078.06 1322.96C2173.3 1376.7 2206.94 1497.48 2153.2 1592.71L785.142 820.75Z" fill="url(#paint7_linear_4003_2611)"/>
<path d="M709.658 815.563C753.147 715.235 869.735 669.157 970.063 712.646L2047.99 1179.89C2148.32 1223.38 2194.4 1339.97 2150.91 1440.3L709.658 815.563Z" fill="url(#paint8_linear_4003_2611)"/>
<path d="M634.89 818.606C667.653 714.281 778.786 656.269 883.111 689.033L2003.98 1041.04C2108.3 1073.81 2166.31 1184.94 2133.55 1289.27L634.89 818.606Z" fill="url(#paint9_linear_4003_2611)"/>
<path d="M561.054 829.012C582.733 721.835 687.191 652.525 794.368 674.204L1945.89 907.125C2053.06 928.804 2122.37 1033.26 2100.69 1140.44L561.054 829.012Z" fill="url(#paint10_linear_4003_2611)"/>
<path d="M488.742 847.58C499.1 738.718 595.746 658.865 704.608 669.223L1874.14 780.498C1983 790.855 2062.86 887.502 2052.5 996.364L488.742 847.58Z" fill="url(#paint11_linear_4003_2611)"/>
<path d="M417.98 873.407C416.902 764.056 504.675 674.534 614.027 673.456L1788.78 661.873C1898.13 660.794 1987.65 748.567 1988.73 857.919L417.98 873.407Z" fill="url(#paint12_linear_4003_2611)"/>
<path d="M350.853 906.805C338.351 798.172 416.28 699.973 524.913 687.472L1692.04 553.154C1800.67 540.653 1898.87 618.582 1911.37 727.214L350.853 906.805Z" fill="url(#paint13_linear_4003_2611)"/>
<path d="M287.239 946.913C263.45 840.181 330.689 734.372 437.422 710.583L1584.11 455.004C1690.84 431.216 1796.65 498.454 1820.44 605.187L287.239 946.913Z" fill="url(#paint14_linear_4003_2611)"/>
<path d="M227.922 993.457C193.105 889.792 248.918 777.531 352.583 742.715L1466.27 368.677C1569.93 333.86 1682.2 389.673 1717.01 493.338L227.922 993.457Z" fill="url(#paint15_linear_4003_2611)"/>
<path d="M174.289 1045.13C128.829 945.679 172.6 828.203 272.053 782.744L1340.56 294.335C1440.01 248.875 1557.49 292.646 1602.95 392.099L174.289 1045.13Z" fill="url(#paint16_linear_4003_2611)"/>
<path d="M126.388 1102.85C70.7817 1008.7 102.033 887.292 196.189 831.686L1207.79 234.264C1301.94 178.658 1423.35 209.909 1478.96 304.065L126.388 1102.85Z" fill="url(#paint17_linear_4003_2611)"/>
<path d="M84.9316 1163.69C19.7868 1075.86 38.1766 951.853 126.006 886.708L1069.61 186.824C1157.44 121.679 1281.45 140.069 1346.59 227.899L84.9316 1163.69Z" fill="url(#paint18_linear_4003_2611)"/>
<path d="M49.1689 1229.73C-24.7986 1149.2 -19.4722 1023.94 61.0658 949.977L926.348 155.286C1006.89 81.3188 1132.14 86.6451 1206.11 167.183L49.1689 1229.73Z" fill="url(#paint19_linear_4003_2611)"/>
<path d="M20.7852 1298.82C-61.198 1226.45 -68.9934 1101.33 3.37383 1019.34L780.835 138.575C853.203 56.5918 978.328 48.7965 1060.31 121.164L20.7852 1298.82Z" fill="url(#paint20_linear_4003_2611)"/>
<path d="M0.155273 1371.01C-88.9445 1307.61 -109.777 1183.98 -46.3747 1094.88L634.754 137.682C698.156 48.5824 821.783 27.7502 910.883 91.1522L0.155273 1371.01Z" fill="url(#paint21_linear_4003_2611)"/>
<path d="M-12.8936 1444.74C-108.132 1391 -141.772 1270.22 -88.0314 1174.99L489.314 151.827C543.055 56.5888 663.827 22.9487 759.065 76.6895L-12.8936 1444.74Z" fill="url(#paint22_linear_4003_2611)"/>
<path d="M-17.4717 1519.16C-117.806 1475.66 -163.886 1359.07 -120.395 1258.74L346.843 180.826C390.335 80.4911 506.929 34.4108 607.263 77.9023L-17.4717 1519.16Z" fill="url(#paint23_linear_4003_2611)"/>
<path d="M-14.415 1593.9C-118.746 1561.14 -176.762 1450 -143.996 1345.67L208.009 224.82C240.775 120.488 351.914 62.473 456.245 95.2386L-14.415 1593.9Z" fill="url(#paint24_linear_4003_2611)"/>
<path d="M-4.03418 1667.74C-111.217 1646.06 -180.53 1541.6 -158.85 1434.42L74.0682 282.907C95.7483 175.725 200.212 106.411 307.395 128.091L-4.03418 1667.74Z" fill="url(#paint25_linear_4003_2611)"/>
<path d="M14.5439 1740.06C-94.3152 1729.7 -174.167 1633.06 -163.809 1524.2L-52.5321 354.642C-42.1747 245.783 54.4694 165.932 163.329 176.289L14.5439 1740.06Z" fill="url(#paint26_linear_4003_2611)"/>
<path d="M40.8506 1812.52C-68.4957 1813.6 -158.012 1725.83 -159.091 1616.48L-170.674 441.72C-171.752 332.374 -83.9838 242.857 25.3625 241.779L40.8506 1812.52Z" fill="url(#paint27_linear_4003_2611)"/>
<path d="M72.5322 1880.12C-36.1003 1892.62 -134.299 1814.69 -146.801 1706.06L-281.118 538.926C-293.62 430.293 -215.691 332.095 -107.058 319.593L72.5322 1880.12Z" fill="url(#paint28_linear_4003_2611)"/>
<path d="M111.558 1943.13C4.82529 1966.92 -100.983 1899.68 -124.772 1792.95L-380.351 646.256C-404.14 539.524 -336.901 433.716 -230.169 409.927L111.558 1943.13Z" fill="url(#paint29_linear_4003_2611)"/>
<g filter="url(#filter1_nf_4003_2611)">
<ellipse cx="701.5" cy="1475.5" rx="675.5" ry="675.5" transform="rotate(180 701.5 1475.5)" fill="#FFDAC7"/>
</g>
</g>
</g>
<defs>
<filter id="filter0_n_4003_2611" x="-1379" y="-573.001" width="4204.13" height="4209.88" filterUnits="userSpaceOnUse" color-interpolation-filters="sRGB">
<feFlood flood-opacity="0" result="BackgroundImageFix"/>
<feBlend mode="normal" in="SourceGraphic" in2="BackgroundImageFix" result="shape"/>
<feTurbulence type="fractalNoise" baseFrequency="0.88819533586502075 0.88819533586502075" stitchTiles="stitch" numOctaves="3" result="noise" seed="4413" />
<feColorMatrix in="noise" type="luminanceToAlpha" result="alphaNoise" />
<feComponentTransfer in="alphaNoise" result="coloredNoise1">
<feFuncA type="discrete" tableValues="0 0 0 0 0 0 0 1 1 1 1 1 1 1 1 1 1 1 1 1 1 1 1 1 1 1 1 1 1 1 1 1 1 1 1 1 1 1 1 1 1 1 1 0 0 0 0 0 0 0 0 0 0 0 0 0 0 0 0 0 0 0 0 0 0 0 0 0 0 0 0 0 0 0 0 0 0 0 0 0 0 0 0 0 0 0 0 0 0 0 0 0 0 0 0 0 0 0 0 0 "/>
</feComponentTransfer>
<feComposite operator="in" in2="shape" in="coloredNoise1" result="noise1Clipped" />
<feFlood flood-color="#FFFFFF" result="color1Flood" />
<feComposite operator="in" in2="noise1Clipped" in="color1Flood" result="color1" />
<feMerge result="effect1_noise_4003_2611">
<feMergeNode in="shape" />
<feMergeNode in="color1" />
</feMerge>
</filter>
<filter id="filter1_nf_4003_2611" x="-52.42" y="721.58" width="1507.84" height="1507.84" filterUnits="userSpaceOnUse" color-interpolation-filters="sRGB">
<feFlood flood-opacity="0" result="BackgroundImageFix"/>
<feBlend mode="normal" in="SourceGraphic" in2="BackgroundImageFix" result="shape"/>
<feTurbulence type="fractalNoise" baseFrequency="0.88819533586502075 0.88819533586502075" stitchTiles="stitch" numOctaves="3" result="noise" seed="7611" />
<feColorMatrix in="noise" type="luminanceToAlpha" result="alphaNoise" />
<feComponentTransfer in="alphaNoise" result="coloredNoise1">
<feFuncA type="discrete" tableValues="0 0 0 0 0 0 0 1 1 1 1 1 1 1 1 1 1 1 1 1 1 1 1 1 1 1 1 1 1 1 1 1 1 1 1 1 1 1 1 1 1 1 1 0 0 0 0 0 0 0 0 0 0 0 0 0 0 0 0 0 0 0 0 0 0 0 0 0 0 0 0 0 0 0 0 0 0 0 0 0 0 0 0 0 0 0 0 0 0 0 0 0 0 0 0 0 0 0 0 0 "/>
</feComponentTransfer>
<feComposite operator="in" in2="shape" in="coloredNoise1" result="noise1Clipped" />
<feFlood flood-color="#FFFFFF" result="color1Flood" />
<feComposite operator="in" in2="noise1Clipped" in="color1Flood" result="color1" />
<feMerge result="effect1_noise_4003_2611">
<feMergeNode in="shape" />
<feMergeNode in="color1" />
</feMerge>
<feGaussianBlur stdDeviation="39.21" result="effect2_foregroundBlur_4003_2611"/>
</filter>
<linearGradient id="paint0_linear_4003_2611" x1="1680.08" y1="1031.7" x2="1486.13" y2="2517.74" gradientUnits="userSpaceOnUse">
<stop offset="0.17" stop-color="#FFFBF6"/>
<stop offset="0.27" stop-color="#FFD9C6"/>
<stop offset="0.37" stop-color="#FFDDCC"/>
<stop offset="0.58" stop-color="#FFBB97"/>
<stop offset="0.74" stop-color="white"/>
</linearGradient>
<linearGradient id="paint1_linear_4003_2611" x1="1621.76" y1="931.537" x2="1584.2" y2="2429.71" gradientUnits="userSpaceOnUse">
<stop offset="0.17" stop-color="#FFFBF6"/>
<stop offset="0.27" stop-color="#FFD9C6"/>
<stop offset="0.37" stop-color="#FFDDCC"/>
<stop offset="0.58" stop-color="#FFBB97"/>
<stop offset="0.74" stop-color="white"/>
</linearGradient>
<linearGradient id="paint2_linear_4003_2611" x1="1553.73" y1="838.549" x2="1672.99" y2="2332.44" gradientUnits="userSpaceOnUse">
<stop offset="0.17" stop-color="#FFFBF6"/>
<stop offset="0.27" stop-color="#FFD9C6"/>
<stop offset="0.37" stop-color="#FFDDCC"/>
<stop offset="0.58" stop-color="#FFBB97"/>
<stop offset="0.74" stop-color="white"/>
</linearGradient>
<linearGradient id="paint3_linear_4003_2611" x1="1476.83" y1="752.724" x2="1751.59" y2="2225.96" gradientUnits="userSpaceOnUse">
<stop offset="0.17" stop-color="#FFFBF6"/>
<stop offset="0.27" stop-color="#FFD9C6"/>
<stop offset="0.37" stop-color="#FFDDCC"/>
<stop offset="0.58" stop-color="#FFBB97"/>
<stop offset="0.74" stop-color="white"/>
</linearGradient>
<linearGradient id="paint4_linear_4003_2611" x1="1390.68" y1="676.09" x2="1817.92" y2="2112.54" gradientUnits="userSpaceOnUse">
<stop offset="0.17" stop-color="#FFFBF6"/>
<stop offset="0.27" stop-color="#FFD9C6"/>
<stop offset="0.37" stop-color="#FFDDCC"/>
<stop offset="0.58" stop-color="#FFBB97"/>
<stop offset="0.74" stop-color="white"/>
</linearGradient>
<linearGradient id="paint5_linear_4003_2611" x1="1297.84" y1="608.026" x2="1872.91" y2="1991.94" gradientUnits="userSpaceOnUse">
<stop offset="0.17" stop-color="#FFFBF6"/>
<stop offset="0.27" stop-color="#FFD9C6"/>
<stop offset="0.37" stop-color="#FFDDCC"/>
<stop offset="0.58" stop-color="#FFBB97"/>
<stop offset="0.74" stop-color="white"/>
</linearGradient>
<linearGradient id="paint6_linear_4003_2611" x1="1197.9" y1="550.377" x2="1914.49" y2="1866.61" gradientUnits="userSpaceOnUse">
<stop offset="0.17" stop-color="#FFFBF6"/>
<stop offset="0.27" stop-color="#FFD9C6"/>
<stop offset="0.37" stop-color="#FFDDCC"/>
<stop offset="0.58" stop-color="#FFBB97"/>
<stop offset="0.74" stop-color="white"/>
</linearGradient>
<linearGradient id="paint7_linear_4003_2611" x1="1092.7" y1="503.454" x2="1942.94" y2="1737.57" gradientUnits="userSpaceOnUse">
<stop offset="0.17" stop-color="#FFFBF6"/>
<stop offset="0.27" stop-color="#FFD9C6"/>
<stop offset="0.37" stop-color="#FFDDCC"/>
<stop offset="0.58" stop-color="#FFBB97"/>
<stop offset="0.74" stop-color="white"/>
</linearGradient>
<linearGradient id="paint8_linear_4003_2611" x1="982.356" y1="467.878" x2="1956.9" y2="1606.37" gradientUnits="userSpaceOnUse">
<stop offset="0.17" stop-color="#FFFBF6"/>
<stop offset="0.27" stop-color="#FFD9C6"/>
<stop offset="0.37" stop-color="#FFDDCC"/>
<stop offset="0.58" stop-color="#FFBB97"/>
<stop offset="0.74" stop-color="white"/>
</linearGradient>
<linearGradient id="paint9_linear_4003_2611" x1="869.751" y1="444.319" x2="1957.97" y2="1474.7" gradientUnits="userSpaceOnUse">
<stop offset="0.17" stop-color="#FFFBF6"/>
<stop offset="0.27" stop-color="#FFD9C6"/>
<stop offset="0.37" stop-color="#FFDDCC"/>
<stop offset="0.58" stop-color="#FFBB97"/>
<stop offset="0.74" stop-color="white"/>
</linearGradient>
<linearGradient id="paint10_linear_4003_2611" x1="755.503" y1="432.232" x2="1945.45" y2="1343.22" gradientUnits="userSpaceOnUse">
<stop offset="0.17" stop-color="#FFFBF6"/>
<stop offset="0.27" stop-color="#FFD9C6"/>
<stop offset="0.37" stop-color="#FFDDCC"/>
<stop offset="0.58" stop-color="#FFBB97"/>
<stop offset="0.74" stop-color="white"/>
</linearGradient>
<linearGradient id="paint11_linear_4003_2611" x1="640.653" y1="432.625" x2="1919.34" y2="1214.22" gradientUnits="userSpaceOnUse">
<stop offset="0.17" stop-color="#FFFBF6"/>
<stop offset="0.27" stop-color="#FFD9C6"/>
<stop offset="0.37" stop-color="#FFDDCC"/>
<stop offset="0.58" stop-color="#FFBB97"/>
<stop offset="0.74" stop-color="white"/>
</linearGradient>
<linearGradient id="paint12_linear_4003_2611" x1="525.685" y1="444.832" x2="1879.08" y2="1088.47" gradientUnits="userSpaceOnUse">
<stop offset="0.17" stop-color="#FFFBF6"/>
<stop offset="0.27" stop-color="#FFD9C6"/>
<stop offset="0.37" stop-color="#FFDDCC"/>
<stop offset="0.58" stop-color="#FFBB97"/>
<stop offset="0.74" stop-color="white"/>
</linearGradient>
<linearGradient id="paint13_linear_4003_2611" x1="413.172" y1="469.348" x2="1826.4" y2="968.027" gradientUnits="userSpaceOnUse">
<stop offset="0.17" stop-color="#FFFBF6"/>
<stop offset="0.27" stop-color="#FFD9C6"/>
<stop offset="0.37" stop-color="#FFDDCC"/>
<stop offset="0.58" stop-color="#FFBB97"/>
<stop offset="0.74" stop-color="white"/>
</linearGradient>
<linearGradient id="paint14_linear_4003_2611" x1="303.489" y1="505.332" x2="1761.11" y2="853.549" gradientUnits="userSpaceOnUse">
<stop offset="0.17" stop-color="#FFFBF6"/>
<stop offset="0.27" stop-color="#FFD9C6"/>
<stop offset="0.37" stop-color="#FFDDCC"/>
<stop offset="0.58" stop-color="#FFBB97"/>
<stop offset="0.74" stop-color="white"/>
</linearGradient>
<linearGradient id="paint15_linear_4003_2611" x1="197.92" y1="552.582" x2="1683.97" y2="746.512" gradientUnits="userSpaceOnUse">
<stop offset="0.17" stop-color="#FFFBF6"/>
<stop offset="0.27" stop-color="#FFD9C6"/>
<stop offset="0.37" stop-color="#FFDDCC"/>
<stop offset="0.58" stop-color="#FFBB97"/>
<stop offset="0.74" stop-color="white"/>
</linearGradient>
<linearGradient id="paint16_linear_4003_2611" x1="98.3753" y1="609.824" x2="1596.55" y2="647.382" gradientUnits="userSpaceOnUse">
<stop offset="0.17" stop-color="#FFFBF6"/>
<stop offset="0.27" stop-color="#FFD9C6"/>
<stop offset="0.37" stop-color="#FFDDCC"/>
<stop offset="0.58" stop-color="#FFBB97"/>
<stop offset="0.74" stop-color="white"/>
</linearGradient>
<linearGradient id="paint17_linear_4003_2611" x1="5.38896" y1="677.869" x2="1499.28" y2="558.622" gradientUnits="userSpaceOnUse">
<stop offset="0.17" stop-color="#FFFBF6"/>
<stop offset="0.27" stop-color="#FFD9C6"/>
<stop offset="0.37" stop-color="#FFDDCC"/>
<stop offset="0.58" stop-color="#FFBB97"/>
<stop offset="0.74" stop-color="white"/>
</linearGradient>
<linearGradient id="paint18_linear_4003_2611" x1="-79.8332" y1="753.676" x2="1393.41" y2="478.914" gradientUnits="userSpaceOnUse">
<stop offset="0.17" stop-color="#FFFBF6"/>
<stop offset="0.27" stop-color="#FFD9C6"/>
<stop offset="0.37" stop-color="#FFDDCC"/>
<stop offset="0.58" stop-color="#FFBB97"/>
<stop offset="0.74" stop-color="white"/>
</linearGradient>
<linearGradient id="paint19_linear_4003_2611" x1="-157.547" y1="839.191" x2="1278.91" y2="411.95" gradientUnits="userSpaceOnUse">
<stop offset="0.17" stop-color="#FFFBF6"/>
<stop offset="0.27" stop-color="#FFD9C6"/>
<stop offset="0.37" stop-color="#FFDDCC"/>
<stop offset="0.58" stop-color="#FFBB97"/>
<stop offset="0.74" stop-color="white"/>
</linearGradient>
<linearGradient id="paint20_linear_4003_2611" x1="-225.631" y1="932.016" x2="1158.29" y2="356.947" gradientUnits="userSpaceOnUse">
<stop offset="0.17" stop-color="#FFFBF6"/>
<stop offset="0.27" stop-color="#FFD9C6"/>
<stop offset="0.37" stop-color="#FFDDCC"/>
<stop offset="0.58" stop-color="#FFBB97"/>
<stop offset="0.74" stop-color="white"/>
</linearGradient>
<linearGradient id="paint21_linear_4003_2611" x1="-283.257" y1="1031.97" x2="1032.96" y2="315.384" gradientUnits="userSpaceOnUse">
<stop offset="0.17" stop-color="#FFFBF6"/>
<stop offset="0.27" stop-color="#FFD9C6"/>
<stop offset="0.37" stop-color="#FFDDCC"/>
<stop offset="0.58" stop-color="#FFBB97"/>
<stop offset="0.74" stop-color="white"/>
</linearGradient>
<linearGradient id="paint22_linear_4003_2611" x1="-330.19" y1="1137.18" x2="903.917" y2="286.94" gradientUnits="userSpaceOnUse">
<stop offset="0.17" stop-color="#FFFBF6"/>
<stop offset="0.27" stop-color="#FFD9C6"/>
<stop offset="0.37" stop-color="#FFDDCC"/>
<stop offset="0.58" stop-color="#FFBB97"/>
<stop offset="0.74" stop-color="white"/>
</linearGradient>
<linearGradient id="paint23_linear_4003_2611" x1="-365.18" y1="1246.45" x2="773.301" y2="271.863" gradientUnits="userSpaceOnUse">
<stop offset="0.17" stop-color="#FFFBF6"/>
<stop offset="0.27" stop-color="#FFD9C6"/>
<stop offset="0.37" stop-color="#FFDDCC"/>
<stop offset="0.58" stop-color="#FFBB97"/>
<stop offset="0.74" stop-color="white"/>
</linearGradient>
<linearGradient id="paint24_linear_4003_2611" x1="-388.725" y1="1359.03" x2="641.648" y2="270.78" gradientUnits="userSpaceOnUse">
<stop offset="0.17" stop-color="#FFFBF6"/>
<stop offset="0.27" stop-color="#FFD9C6"/>
<stop offset="0.37" stop-color="#FFDDCC"/>
<stop offset="0.58" stop-color="#FFBB97"/>
<stop offset="0.74" stop-color="white"/>
</linearGradient>
<linearGradient id="paint25_linear_4003_2611" x1="-400.837" y1="1473.29" x2="510.144" y2="283.303" gradientUnits="userSpaceOnUse">
<stop offset="0.17" stop-color="#FFFBF6"/>
<stop offset="0.27" stop-color="#FFD9C6"/>
<stop offset="0.37" stop-color="#FFDDCC"/>
<stop offset="0.58" stop-color="#FFBB97"/>
<stop offset="0.74" stop-color="white"/>
</linearGradient>
<linearGradient id="paint26_linear_4003_2611" x1="-400.401" y1="1588.15" x2="381.208" y2="309.471" gradientUnits="userSpaceOnUse">
<stop offset="0.17" stop-color="#FFFBF6"/>
<stop offset="0.27" stop-color="#FFD9C6"/>
<stop offset="0.37" stop-color="#FFDDCC"/>
<stop offset="0.58" stop-color="#FFBB97"/>
<stop offset="0.74" stop-color="white"/>
</linearGradient>
<linearGradient id="paint27_linear_4003_2611" x1="-387.704" y1="1704.82" x2="255.956" y2="351.449" gradientUnits="userSpaceOnUse">
<stop offset="0.17" stop-color="#FFFBF6"/>
<stop offset="0.27" stop-color="#FFD9C6"/>
<stop offset="0.37" stop-color="#FFDDCC"/>
<stop offset="0.58" stop-color="#FFBB97"/>
<stop offset="0.74" stop-color="white"/>
</linearGradient>
<linearGradient id="paint28_linear_4003_2611" x1="-364.924" y1="1817.8" x2="133.755" y2="404.567" gradientUnits="userSpaceOnUse">
<stop offset="0.17" stop-color="#FFFBF6"/>
<stop offset="0.27" stop-color="#FFD9C6"/>
<stop offset="0.37" stop-color="#FFDDCC"/>
<stop offset="0.58" stop-color="#FFBB97"/>
<stop offset="0.74" stop-color="white"/>
</linearGradient>
<linearGradient id="paint29_linear_4003_2611" x1="-330.023" y1="1926.88" x2="18.1933" y2="469.259" gradientUnits="userSpaceOnUse">
<stop offset="0.17" stop-color="#FFFBF6"/>
<stop offset="0.27" stop-color="#FFD9C6"/>
<stop offset="0.37" stop-color="#FFDDCC"/>
<stop offset="0.58" stop-color="#FFBB97"/>
<stop offset="0.74" stop-color="white"/>
</linearGradient>
<clipPath id="clip0_4003_2611">
<rect width="1436" height="1049" fill="white"/>
</clipPath>
</defs>
</svg>
