<svg width="546" height="136" viewBox="0 0 546 136" fill="none" xmlns="http://www.w3.org/2000/svg">
<rect y="0.285156" width="546" height="135.314" rx="13.0949" fill="#EFEFEF"/>
<path d="M21.7071 32.4072C21.7071 32.0609 21.814 31.7757 22.0279 31.5516C22.252 31.3276 22.5371 31.2155 22.8834 31.2155H24.3653V32.3155H23.3112C23.0362 32.3155 22.8987 32.4683 22.8987 32.7738V37.6626C22.8987 38.0089 22.7867 38.2941 22.5626 38.5181C22.3487 38.7422 22.0635 38.8542 21.7071 38.8542H21.5237V39.0376H21.7071C22.0635 39.0376 22.3487 39.1496 22.5626 39.3737C22.7867 39.5977 22.8987 39.8829 22.8987 40.2292V45.1179C22.8987 45.4235 23.0362 45.5763 23.3112 45.5763H24.3653V46.6762H22.8834C22.5371 46.6762 22.252 46.5642 22.0279 46.3401C21.814 46.1161 21.7071 45.8309 21.7071 45.4846V40.2139C21.7071 39.9185 21.5696 39.7709 21.2946 39.7709H20.5154V38.1209H21.2946C21.5696 38.1209 21.7071 37.9732 21.7071 37.6779V32.4072ZM41.1645 56.4543C41.1645 56.159 41.2663 55.9094 41.47 55.7057C41.6839 55.4919 41.9385 55.3849 42.2339 55.3849C42.5293 55.3849 42.7788 55.4919 42.9825 55.7057C43.1964 55.9094 43.3033 56.159 43.3033 56.4543C43.3033 56.6784 43.2422 56.8821 43.12 57.0654C42.9978 57.2386 42.8399 57.3659 42.6464 57.4474V59.1432H41.8214V57.4474C41.6279 57.3659 41.47 57.2386 41.3478 57.0654C41.2256 56.8821 41.1645 56.6784 41.1645 56.4543ZM38.384 56.4543C38.384 56.159 38.4858 55.9094 38.6895 55.7057C38.9034 55.4919 39.158 55.3849 39.4534 55.3849C39.7488 55.3849 39.9983 55.4919 40.202 55.7057C40.4159 55.9094 40.5228 56.159 40.5228 56.4543C40.5228 56.6784 40.4617 56.8821 40.3395 57.0654C40.2173 57.2386 40.0594 57.3659 39.8659 57.4474V59.1432H39.0409V57.4474C38.8474 57.3659 38.6895 57.2386 38.5673 57.0654C38.4451 56.8821 38.384 56.6784 38.384 56.4543ZM46.8523 65.193H49.6022V56.6988H46.944V55.5988H50.7939V65.193H53.5438V66.293H46.8523V65.193ZM58.5594 56.4543C58.5594 56.159 58.6613 55.9094 58.865 55.7057C59.0789 55.4919 59.3335 55.3849 59.6288 55.3849C59.9242 55.3849 60.1737 55.4919 60.3774 55.7057C60.5913 55.9094 60.6983 56.159 60.6983 56.4543C60.6983 56.7497 60.5913 57.0043 60.3774 57.2182C60.1737 57.4219 59.9242 57.5238 59.6288 57.5238C59.3335 57.5238 59.0789 57.4219 58.865 57.2182C58.6613 57.0043 58.5594 56.7497 58.5594 56.4543ZM56.39 65.193H59.0483V59.8154H56.665V58.7154H60.2399V65.193H62.7149V66.293H56.39V65.193ZM72.8484 66.293H71.6568V60.8542C71.6568 60.4978 71.5753 60.2075 71.4124 59.9834C71.2494 59.7492 70.9897 59.632 70.6332 59.632C70.2971 59.632 70.0221 59.7593 69.8082 60.014C69.6045 60.2584 69.5027 60.6403 69.5027 61.1598V66.293H68.3111V60.7931C68.3111 60.457 68.2194 60.182 68.0361 59.9681C67.8527 59.7441 67.6083 59.632 67.3027 59.632C66.9361 59.632 66.6509 59.7644 66.4472 60.0292C66.2537 60.2941 66.1569 60.6403 66.1569 61.0681V66.293H64.9653V58.7154H66.1569V59.5404H66.3403C66.4727 59.1839 66.6662 58.9242 66.9208 58.7612C67.1754 58.5881 67.4759 58.5015 67.8222 58.5015C68.1888 58.5015 68.4893 58.5983 68.7235 58.7918C68.968 58.9853 69.136 59.2348 69.2277 59.5404H69.411C69.7573 58.8478 70.3073 58.5015 71.061 58.5015C71.6313 58.5015 72.0693 58.6848 72.3748 59.0515C72.6906 59.408 72.8484 59.8765 72.8484 60.457V66.293ZM77.2682 56.4543C77.2682 56.159 77.3701 55.9094 77.5738 55.7057C77.7877 55.4919 78.0423 55.3849 78.3377 55.3849C78.633 55.3849 78.8826 55.4919 79.0863 55.7057C79.3001 55.9094 79.4071 56.159 79.4071 56.4543C79.4071 56.7497 79.3001 57.0043 79.0863 57.2182C78.8826 57.4219 78.633 57.5238 78.3377 57.5238C78.0423 57.5238 77.7877 57.4219 77.5738 57.2182C77.3701 57.0043 77.2682 56.7497 77.2682 56.4543ZM75.0989 65.193H77.7571V59.8154H75.3739V58.7154H78.9488V65.193H81.4237V66.293H75.0989V65.193ZM84.0102 58.7154H86.3935V55.5988H87.5851V58.7154H90.5184V59.8154H87.5851V64.7347C87.5851 65.0402 87.7226 65.193 87.9976 65.193H90.1517V66.293H87.5698C87.2236 66.293 86.9384 66.1809 86.7143 65.9569C86.5004 65.7328 86.3935 65.4476 86.3935 65.1013V59.8154H84.0102V58.7154ZM97.2909 56.4543C97.2909 56.159 97.3928 55.9094 97.5965 55.7057C97.8103 55.4919 98.065 55.3849 98.3603 55.3849C98.6557 55.3849 98.9052 55.4919 99.1089 55.7057C99.3228 55.9094 99.4297 56.159 99.4297 56.4543C99.4297 56.6784 99.3686 56.8821 99.2464 57.0654C99.1242 57.2386 98.9663 57.3659 98.7728 57.4474V59.1432H97.9478V57.4474C97.7543 57.3659 97.5965 57.2386 97.4742 57.0654C97.352 56.8821 97.2909 56.6784 97.2909 56.4543ZM94.5104 56.4543C94.5104 56.159 94.6123 55.9094 94.816 55.7057C95.0299 55.4919 95.2845 55.3849 95.5798 55.3849C95.8752 55.3849 96.1247 55.4919 96.3284 55.7057C96.5423 55.9094 96.6493 56.159 96.6493 56.4543C96.6493 56.6784 96.5882 56.8821 96.4659 57.0654C96.3437 57.2386 96.1858 57.3659 95.9923 57.4474V59.1432H95.1674V57.4474C94.9738 57.3659 94.816 57.2386 94.6938 57.0654C94.5715 56.8821 94.5104 56.6784 94.5104 56.4543ZM142.673 65.4374C142.673 65.1421 142.775 64.8925 142.978 64.6888C143.192 64.475 143.447 64.368 143.742 64.368C144.037 64.368 144.287 64.475 144.491 64.6888C144.705 64.8925 144.812 65.1421 144.812 65.4374V66.9346C144.812 67.2809 144.7 67.5661 144.475 67.7902C144.262 68.0142 143.981 68.1263 143.635 68.1263H142.856V67.3013H143.574C143.849 67.3013 143.987 67.1485 143.987 66.843V66.461C143.905 66.4916 143.819 66.5069 143.727 66.5069C143.442 66.5069 143.192 66.405 142.978 66.2013C142.775 65.9874 142.673 65.7328 142.673 65.4374ZM41.1645 78.4543C41.1645 78.159 41.2663 77.9094 41.47 77.7057C41.6839 77.4919 41.9385 77.3849 42.2339 77.3849C42.5293 77.3849 42.7788 77.4919 42.9825 77.7057C43.1964 77.9094 43.3033 78.159 43.3033 78.4543C43.3033 78.6784 43.2422 78.8821 43.12 79.0654C42.9978 79.2386 42.8399 79.3659 42.6464 79.4474V81.1432H41.8214V79.4474C41.6279 79.3659 41.47 79.2386 41.3478 79.0654C41.2256 78.8821 41.1645 78.6784 41.1645 78.4543ZM38.384 78.4543C38.384 78.159 38.4858 77.9094 38.6895 77.7057C38.9034 77.4919 39.158 77.3849 39.4534 77.3849C39.7488 77.3849 39.9983 77.4919 40.202 77.7057C40.4159 77.9094 40.5228 78.159 40.5228 78.4543C40.5228 78.6784 40.4617 78.8821 40.3395 79.0654C40.2173 79.2386 40.0594 79.3659 39.8659 79.4474V81.1432H39.0409V79.4474C38.8474 79.3659 38.6895 79.2386 38.5673 79.0654C38.4451 78.8821 38.384 78.6784 38.384 78.4543ZM52.2605 80.7154H53.4521V88.293H52.2605V86.918H52.0772C51.8327 87.4069 51.5119 87.7939 51.1147 88.0791C50.7175 88.3643 50.2133 88.5069 49.6022 88.5069C49.1847 88.5069 48.7976 88.4356 48.4412 88.293C48.0949 88.1606 47.7944 87.9569 47.5398 87.6819C47.2954 87.4069 47.1018 87.0657 46.9593 86.6583C46.8268 86.2509 46.7606 85.7773 46.7606 85.2375V80.7154H47.9523V85.0847C47.9523 85.8791 48.1152 86.4597 48.4412 86.8263C48.7671 87.193 49.2661 87.3763 49.9383 87.3763C50.6615 87.3763 51.2267 87.1319 51.6341 86.643C52.0517 86.144 52.2605 85.4819 52.2605 84.657V80.7154ZM57.7803 82.6709C57.7803 83.0376 57.9331 83.3176 58.2386 83.5112C58.5543 83.7047 59.1247 83.832 59.9497 83.8931C60.8358 83.9644 61.508 84.1783 61.9663 84.5347C62.4348 84.881 62.669 85.3903 62.669 86.0625V86.1541C62.669 86.5208 62.5927 86.8518 62.4399 87.1472C62.2973 87.4323 62.0936 87.6768 61.8288 87.8805C61.5742 88.0842 61.2584 88.237 60.8816 88.3388C60.5149 88.4508 60.1126 88.5069 59.6747 88.5069C59.084 88.5069 58.5747 88.4305 58.1469 88.2777C57.7294 88.1147 57.378 87.9059 57.0928 87.6513C56.8178 87.3865 56.609 87.0911 56.4664 86.7652C56.3238 86.4291 56.2424 86.093 56.222 85.7569L57.3525 85.4819C57.4034 86.0625 57.6275 86.531 58.0247 86.8875C58.4219 87.2337 58.9516 87.4069 59.6136 87.4069C60.1737 87.4069 60.6219 87.2999 60.958 87.0861C61.3043 86.862 61.4774 86.5513 61.4774 86.1541C61.4774 85.7264 61.3094 85.4208 60.9733 85.2375C60.6372 85.0542 60.0923 84.937 59.3386 84.8861C58.4627 84.825 57.7905 84.6213 57.322 84.275C56.8535 83.9287 56.6192 83.4246 56.6192 82.7626V82.6709C56.6192 82.3144 56.6956 82.0038 56.8484 81.739C57.0011 81.464 57.2048 81.2348 57.4595 81.0515C57.7243 80.8682 58.0196 80.7307 58.3456 80.639C58.6715 80.5473 59.0127 80.5015 59.3691 80.5015C59.8682 80.5015 60.3061 80.5728 60.683 80.7154C61.0598 80.8478 61.3756 81.026 61.6302 81.2501C61.8848 81.464 62.0783 81.7135 62.2107 81.9987C62.3533 82.2839 62.445 82.569 62.4857 82.8542L61.3552 83.1292C61.3043 82.6403 61.1057 82.2584 60.7594 81.9834C60.4233 81.7084 59.9802 81.5709 59.4302 81.5709C59.2164 81.5709 59.0076 81.5964 58.8039 81.6473C58.6104 81.6881 58.4372 81.7543 58.2844 81.8459C58.1317 81.9376 58.0094 82.0547 57.9178 82.1973C57.8261 82.3297 57.7803 82.4876 57.7803 82.6709ZM66.4319 84.8708C66.4625 85.6245 66.6967 86.2305 67.1347 86.6888C67.5726 87.1472 68.1837 87.3763 68.968 87.3763C69.3245 87.3763 69.6351 87.3356 69.8999 87.2541C70.1647 87.1726 70.3888 87.0606 70.5721 86.918C70.7656 86.7754 70.9184 86.6125 71.0304 86.4291C71.1526 86.2356 71.2494 86.0319 71.3207 85.818L72.4512 86.1236C72.2373 86.8263 71.8401 87.4018 71.2596 87.8499C70.6892 88.2879 69.9152 88.5069 68.9374 88.5069C68.3976 88.5069 67.8986 88.4152 67.4402 88.2319C66.9921 88.0383 66.6051 87.7684 66.2792 87.4222C65.9532 87.0759 65.6986 86.6634 65.5153 86.1847C65.332 85.706 65.2403 85.1764 65.2403 84.5958V84.2292C65.2403 83.6996 65.332 83.2056 65.5153 82.7473C65.7088 82.289 65.9736 81.8968 66.3097 81.5709C66.6458 81.2348 67.0379 80.9751 67.4861 80.7918C67.9444 80.5983 68.4384 80.5015 68.968 80.5015C69.5893 80.5015 70.124 80.6186 70.5721 80.8529C71.0304 81.077 71.4022 81.357 71.6874 81.6931C71.9827 82.0292 72.1966 82.3959 72.329 82.7931C72.4716 83.1903 72.5429 83.557 72.5429 83.8931V84.8708H66.4319ZM68.968 81.632C68.6319 81.632 68.3161 81.6881 68.0208 81.8001C67.7356 81.9019 67.481 82.0496 67.2569 82.2431C67.043 82.4366 66.8648 82.6658 66.7222 82.9306C66.5898 83.1852 66.5032 83.4653 66.4625 83.7709H71.3513C71.3309 83.4449 71.2494 83.1496 71.1068 82.8848C70.9744 82.62 70.7962 82.3959 70.5721 82.2126C70.3582 82.0292 70.1087 81.8867 69.8235 81.7848C69.5485 81.683 69.2633 81.632 68.968 81.632ZM74.4878 80.7154H77.2377V81.7237H77.421C77.6145 81.3061 77.8895 81.0006 78.246 80.8071C78.6025 80.6034 79.0099 80.5015 79.4682 80.5015C80.2321 80.5015 80.8482 80.751 81.3168 81.2501C81.7853 81.7492 82.0348 82.4774 82.0653 83.4348L80.8126 83.6181C80.8126 82.9153 80.6445 82.4112 80.3084 82.1056C79.9723 81.7899 79.5599 81.632 79.071 81.632C78.7552 81.632 78.4803 81.6931 78.246 81.8154C78.0219 81.9376 77.8335 82.1056 77.6807 82.3195C77.528 82.5334 77.4159 82.7829 77.3446 83.0681C77.2733 83.3533 77.2377 83.6588 77.2377 83.9847V87.193H79.1626V88.293H74.3044V87.193H76.0461V81.8154H74.4878V80.7154ZM87.9365 78.4543C87.9365 78.159 88.0384 77.9094 88.2421 77.7057C88.4559 77.4919 88.7106 77.3849 89.0059 77.3849C89.3013 77.3849 89.5508 77.4919 89.7545 77.7057C89.9684 77.9094 90.0753 78.159 90.0753 78.4543C90.0753 78.6784 90.0142 78.8821 89.892 79.0654C89.7698 79.2386 89.6119 79.3659 89.4184 79.4474V81.1432H88.5934V79.4474C88.3999 79.3659 88.2421 79.2386 88.1198 79.0654C87.9976 78.8821 87.9365 78.6784 87.9365 78.4543ZM85.156 78.4543C85.156 78.159 85.2579 77.9094 85.4616 77.7057C85.6755 77.4919 85.9301 77.3849 86.2254 77.3849C86.5208 77.3849 86.7703 77.4919 86.974 77.7057C87.1879 77.9094 87.2949 78.159 87.2949 78.4543C87.2949 78.6784 87.2337 78.8821 87.1115 79.0654C86.9893 79.2386 86.8314 79.3659 86.6379 79.4474V81.1432H85.8129V79.4474C85.6194 79.3659 85.4616 79.2386 85.3394 79.0654C85.2171 78.8821 85.156 78.6784 85.156 78.4543ZM22.5626 102.678C22.5626 102.973 22.7001 103.121 22.9751 103.121H23.7542V104.771H22.9751C22.7001 104.771 22.5626 104.919 22.5626 105.214V110.485C22.5626 110.831 22.4506 111.116 22.2265 111.34C22.0126 111.564 21.7325 111.676 21.3862 111.676H19.9043V110.576H20.9585C21.2335 110.576 21.371 110.423 21.371 110.118V105.229C21.371 104.883 21.4779 104.598 21.6918 104.374C21.9159 104.15 22.2061 104.038 22.5626 104.038H22.7459V103.854H22.5626C22.2061 103.854 21.9159 103.742 21.6918 103.518C21.4779 103.294 21.371 103.009 21.371 102.663V97.7738C21.371 97.4683 21.2335 97.3155 20.9585 97.3155H19.9043V96.2155H21.3862C21.7325 96.2155 22.0126 96.3276 22.2265 96.5516C22.4506 96.7757 22.5626 97.0609 22.5626 97.4072V102.678Z" fill="#53B559"/>
<path d="M105.255 65.4374C105.255 65.1421 105.357 64.8925 105.561 64.6888C105.775 64.475 106.029 64.368 106.324 64.368C106.62 64.368 106.869 64.475 107.073 64.6888C107.287 64.8925 107.394 65.1421 107.394 65.4374C107.394 65.7328 107.287 65.9874 107.073 66.2013C106.869 66.405 106.62 66.5069 106.324 66.5069C106.029 66.5069 105.775 66.405 105.561 66.2013C105.357 65.9874 105.255 65.7328 105.255 65.4374ZM105.255 59.5709C105.255 59.2756 105.357 59.026 105.561 58.8223C105.775 58.6084 106.029 58.5015 106.324 58.5015C106.62 58.5015 106.869 58.6084 107.073 58.8223C107.287 59.026 107.394 59.2756 107.394 59.5709C107.394 59.8663 107.287 60.1209 107.073 60.3348C106.869 60.5385 106.62 60.6403 106.324 60.6403C106.029 60.6403 105.775 60.5385 105.561 60.3348C105.357 60.1209 105.255 59.8663 105.255 59.5709ZM95.9007 87.4374C95.9007 87.1421 96.0025 86.8925 96.2062 86.6888C96.4201 86.475 96.6747 86.368 96.9701 86.368C97.2655 86.368 97.515 86.475 97.7187 86.6888C97.9326 86.8925 98.0395 87.1421 98.0395 87.4374C98.0395 87.7328 97.9326 87.9874 97.7187 88.2013C97.515 88.405 97.2655 88.5069 96.9701 88.5069C96.6747 88.5069 96.4201 88.405 96.2062 88.2013C96.0025 87.9874 95.9007 87.7328 95.9007 87.4374ZM95.9007 81.5709C95.9007 81.2756 96.0025 81.026 96.2062 80.8223C96.4201 80.6084 96.6747 80.5015 96.9701 80.5015C97.2655 80.5015 97.515 80.6084 97.7187 80.8223C97.9326 81.026 98.0395 81.2756 98.0395 81.5709C98.0395 81.8663 97.9326 82.1209 97.7187 82.3348C97.515 82.5385 97.2655 82.6403 96.9701 82.6403C96.6747 82.6403 96.4201 82.5385 96.2062 82.3348C96.0025 82.1209 95.9007 81.8663 95.9007 81.5709Z" fill="#2E89FF"/>
<path d="M124.468 65.1013V56.1641H124.285L122.528 60.182H121.26V60.0904L123.261 55.5988H125.751V65.1013H128.776V66.293H121.443V65.1013H124.468ZM130.629 59.7543C130.629 58.3691 130.96 57.2946 131.623 56.5307C132.285 55.7669 133.206 55.3849 134.388 55.3849C135.569 55.3849 136.491 55.7669 137.153 56.5307C137.815 57.2946 138.146 58.3691 138.146 59.7543V62.1375C138.146 63.5634 137.815 64.6481 137.153 65.3916C136.491 66.1351 135.569 66.5069 134.388 66.5069C133.206 66.5069 132.285 66.1351 131.623 65.3916C130.96 64.6481 130.629 63.5634 130.629 62.1375V59.7543ZM134.388 65.3458C135.213 65.3458 135.829 65.0606 136.236 64.4902C136.654 63.9097 136.863 63.0949 136.863 62.0459V59.8459C136.863 59.357 136.812 58.914 136.71 58.5168C136.608 58.1094 136.45 57.7631 136.236 57.4779C136.033 57.1826 135.773 56.9534 135.457 56.7904C135.152 56.6275 134.795 56.546 134.388 56.546C133.97 56.546 133.609 56.6275 133.303 56.7904C132.997 56.9534 132.738 57.1826 132.524 57.4779C132.32 57.7631 132.167 58.1094 132.066 58.5168C131.964 58.914 131.913 59.357 131.913 59.8459V62.0459C131.913 63.0949 132.116 63.9097 132.524 64.4902C132.941 65.0606 133.563 65.3458 134.388 65.3458ZM133.41 60.9459C133.41 60.6811 133.507 60.4519 133.7 60.2584C133.894 60.0649 134.123 59.9681 134.388 59.9681C134.653 59.9681 134.882 60.0649 135.075 60.2584C135.269 60.4519 135.365 60.6811 135.365 60.9459C135.365 61.2107 135.269 61.4399 135.075 61.6334C134.882 61.8269 134.653 61.9236 134.388 61.9236C134.123 61.9236 133.894 61.8269 133.7 61.6334C133.507 61.4399 133.41 61.2107 133.41 60.9459ZM106.645 78.4543C106.645 78.159 106.747 77.9094 106.951 77.7057C107.165 77.4919 107.419 77.3849 107.715 77.3849C108.01 77.3849 108.26 77.4919 108.463 77.7057C108.677 77.9094 108.784 78.159 108.784 78.4543C108.784 78.6784 108.723 78.8821 108.601 79.0654C108.479 79.2386 108.321 79.3659 108.127 79.4474V81.1432H107.302V79.4474C107.109 79.3659 106.951 79.2386 106.829 79.0654C106.706 78.8821 106.645 78.6784 106.645 78.4543ZM103.865 78.4543C103.865 78.159 103.967 77.9094 104.17 77.7057C104.384 77.4919 104.639 77.3849 104.934 77.3849C105.23 77.3849 105.479 77.4919 105.683 77.7057C105.897 77.9094 106.004 78.159 106.004 78.4543C106.004 78.6784 105.943 78.8821 105.82 79.0654C105.698 79.2386 105.54 79.3659 105.347 79.4474V81.1432H104.522V79.4474C104.328 79.3659 104.17 79.2386 104.048 79.0654C103.926 78.8821 103.865 78.6784 103.865 78.4543ZM119.422 85.6042C119.34 86.0217 119.198 86.4088 118.994 86.7652C118.801 87.1217 118.551 87.4323 118.246 87.6972C117.94 87.9518 117.583 88.1504 117.176 88.293C116.769 88.4356 116.315 88.5069 115.816 88.5069C115.287 88.5069 114.783 88.4203 114.304 88.2471C113.835 88.074 113.423 87.8245 113.066 87.4985C112.71 87.1624 112.425 86.755 112.211 86.2764C112.007 85.7977 111.905 85.2477 111.905 84.6264V84.4431C111.905 83.832 112.007 83.282 112.211 82.7931C112.425 82.3042 112.71 81.8917 113.066 81.5556C113.423 81.2195 113.835 80.9598 114.304 80.7765C114.783 80.5932 115.287 80.5015 115.816 80.5015C116.295 80.5015 116.738 80.5728 117.146 80.7154C117.553 80.858 117.909 81.0617 118.215 81.3265C118.531 81.5811 118.785 81.8867 118.979 82.2431C119.183 82.5996 119.32 82.9866 119.391 83.4042L118.2 83.6792C118.169 83.4144 118.093 83.1598 117.971 82.9153C117.858 82.6607 117.701 82.4417 117.497 82.2584C117.303 82.0649 117.064 81.9121 116.779 81.8001C116.494 81.6881 116.163 81.632 115.786 81.632C115.419 81.632 115.073 81.7033 114.747 81.8459C114.431 81.9783 114.151 82.1718 113.907 82.4265C113.662 82.6709 113.469 82.9663 113.326 83.3125C113.194 83.6588 113.128 84.0357 113.128 84.4431V84.6264C113.128 85.0542 113.194 85.4412 113.326 85.7875C113.469 86.1236 113.662 86.4088 113.907 86.643C114.151 86.8773 114.436 87.0606 114.762 87.193C115.088 87.3152 115.44 87.3763 115.816 87.3763C116.193 87.3763 116.519 87.3203 116.794 87.2083C117.079 87.0861 117.319 86.9333 117.512 86.75C117.716 86.5564 117.874 86.3375 117.986 86.093C118.108 85.8486 118.189 85.594 118.23 85.3292L119.422 85.6042ZM127.096 80.7154H128.287V88.293H127.096V86.918H126.912C126.668 87.4069 126.347 87.7939 125.95 88.0791C125.553 88.3643 125.049 88.5069 124.437 88.5069C124.02 88.5069 123.633 88.4356 123.276 88.293C122.93 88.1606 122.63 87.9569 122.375 87.6819C122.131 87.4069 121.937 87.0657 121.795 86.6583C121.662 86.2509 121.596 85.7773 121.596 85.2375V80.7154H122.788V85.0847C122.788 85.8791 122.95 86.4597 123.276 86.8263C123.602 87.193 124.101 87.3763 124.774 87.3763C125.497 87.3763 126.062 87.1319 126.469 86.643C126.887 86.144 127.096 85.4819 127.096 84.657V80.7154ZM130.614 80.7154H133.364V81.7237H133.547C133.741 81.3061 134.016 81.0006 134.372 80.8071C134.729 80.6034 135.136 80.5015 135.595 80.5015C136.358 80.5015 136.975 80.751 137.443 81.2501C137.912 81.7492 138.161 82.4774 138.192 83.4348L136.939 83.6181C136.939 82.9153 136.771 82.4112 136.435 82.1056C136.099 81.7899 135.686 81.632 135.197 81.632C134.882 81.632 134.607 81.6931 134.372 81.8154C134.148 81.9376 133.96 82.1056 133.807 82.3195C133.654 82.5334 133.542 82.7829 133.471 83.0681C133.4 83.3533 133.364 83.6588 133.364 83.9847V87.193H135.289V88.293H130.431V87.193H132.172V81.8154H130.614V80.7154ZM139.969 80.7154H142.719V81.7237H142.902C143.095 81.3061 143.37 81.0006 143.727 80.8071C144.083 80.6034 144.491 80.5015 144.949 80.5015C145.713 80.5015 146.329 80.751 146.798 81.2501C147.266 81.7492 147.516 82.4774 147.546 83.4348L146.293 83.6181C146.293 82.9153 146.125 82.4112 145.789 82.1056C145.453 81.7899 145.041 81.632 144.552 81.632C144.236 81.632 143.961 81.6931 143.727 81.8154C143.503 81.9376 143.314 82.1056 143.162 82.3195C143.009 82.5334 142.897 82.7829 142.825 83.0681C142.754 83.3533 142.719 83.6588 142.719 83.9847V87.193H144.643V88.293H139.785V87.193H141.527V81.8154H139.969V80.7154ZM150.622 84.8708C150.652 85.6245 150.886 86.2305 151.324 86.6888C151.762 87.1472 152.373 87.3763 153.158 87.3763C153.514 87.3763 153.825 87.3356 154.09 87.2541C154.354 87.1726 154.578 87.0606 154.762 86.918C154.955 86.7754 155.108 86.6125 155.22 86.4291C155.342 86.2356 155.439 86.0319 155.51 85.818L156.641 86.1236C156.427 86.8263 156.03 87.4018 155.449 87.8499C154.879 88.2879 154.105 88.5069 153.127 88.5069C152.587 88.5069 152.088 88.4152 151.63 88.2319C151.182 88.0383 150.795 87.7684 150.469 87.4222C150.143 87.0759 149.888 86.6634 149.705 86.1847C149.522 85.706 149.43 85.1764 149.43 84.5958V84.2292C149.43 83.6996 149.522 83.2056 149.705 82.7473C149.898 82.289 150.163 81.8968 150.499 81.5709C150.835 81.2348 151.228 80.9751 151.676 80.7918C152.134 80.5983 152.628 80.5015 153.158 80.5015C153.779 80.5015 154.314 80.6186 154.762 80.8529C155.22 81.077 155.592 81.357 155.877 81.6931C156.172 82.0292 156.386 82.3959 156.519 82.7931C156.661 83.1903 156.733 83.557 156.733 83.8931V84.8708H150.622ZM153.158 81.632C152.822 81.632 152.506 81.6881 152.21 81.8001C151.925 81.9019 151.671 82.0496 151.447 82.2431C151.233 82.4366 151.054 82.6658 150.912 82.9306C150.779 83.1852 150.693 83.4653 150.652 83.7709H155.541C155.521 83.4449 155.439 83.1496 155.296 82.8848C155.164 82.62 154.986 82.3959 154.762 82.2126C154.548 82.0292 154.298 81.8867 154.013 81.7848C153.738 81.683 153.453 81.632 153.158 81.632ZM160.297 88.293H159.105V80.7154H160.297V81.9987H160.48C160.949 81.0006 161.763 80.5015 162.925 80.5015C163.8 80.5015 164.498 80.7765 165.018 81.3265C165.537 81.8663 165.797 82.6811 165.797 83.7709V88.293H164.605V84.0153C164.605 83.2209 164.427 82.6251 164.07 82.2279C163.714 81.8306 163.23 81.632 162.619 81.632C161.896 81.632 161.326 81.8816 160.908 82.3806C160.501 82.8695 160.297 83.5264 160.297 84.3514V88.293ZM168.2 80.7154H170.583V77.5988H171.775V80.7154H174.708V81.8154H171.775V86.7347C171.775 87.0402 171.912 87.193 172.187 87.193H174.341V88.293H171.76C171.413 88.293 171.128 88.1809 170.904 87.9569C170.69 87.7328 170.583 87.4476 170.583 87.1013V81.8154H168.2V80.7154ZM178.776 77.5988V84.6875C178.776 85.5532 178.975 86.2102 179.372 86.6583C179.78 87.0962 180.376 87.3152 181.16 87.3152C181.944 87.3152 182.535 87.0962 182.932 86.6583C183.339 86.2102 183.543 85.5532 183.543 84.6875V77.5988H184.826V84.6875C184.826 85.9301 184.5 86.8773 183.849 87.5291C183.197 88.1809 182.3 88.5069 181.16 88.5069C180.019 88.5069 179.123 88.1809 178.471 87.5291C177.819 86.8773 177.493 85.9301 177.493 84.6875V77.5988H178.776ZM188.742 82.6709C188.742 83.0376 188.895 83.3176 189.2 83.5112C189.516 83.7047 190.086 83.832 190.911 83.8931C191.797 83.9644 192.47 84.1783 192.928 84.5347C193.396 84.881 193.631 85.3903 193.631 86.0625V86.1541C193.631 86.5208 193.554 86.8518 193.402 87.1472C193.259 87.4323 193.055 87.6768 192.79 87.8805C192.536 88.0842 192.22 88.237 191.843 88.3388C191.477 88.4508 191.074 88.5069 190.636 88.5069C190.046 88.5069 189.536 88.4305 189.109 88.2777C188.691 88.1147 188.34 87.9059 188.054 87.6513C187.78 87.3865 187.571 87.0911 187.428 86.7652C187.286 86.4291 187.204 86.093 187.184 85.7569L188.314 85.4819C188.365 86.0625 188.589 86.531 188.986 86.8875C189.384 87.2337 189.913 87.4069 190.575 87.4069C191.135 87.4069 191.584 87.2999 191.92 87.0861C192.266 86.862 192.439 86.5513 192.439 86.1541C192.439 85.7264 192.271 85.4208 191.935 85.2375C191.599 85.0542 191.054 84.937 190.3 84.8861C189.424 84.825 188.752 84.6213 188.284 84.275C187.815 83.9287 187.581 83.4246 187.581 82.7626V82.6709C187.581 82.3144 187.657 82.0038 187.81 81.739C187.963 81.464 188.167 81.2348 188.421 81.0515C188.686 80.8682 188.981 80.7307 189.307 80.639C189.633 80.5473 189.974 80.5015 190.331 80.5015C190.83 80.5015 191.268 80.5728 191.645 80.7154C192.022 80.8478 192.337 81.026 192.592 81.2501C192.847 81.464 193.04 81.7135 193.172 81.9987C193.315 82.2839 193.407 82.569 193.447 82.8542L192.317 83.1292C192.266 82.6403 192.067 82.2584 191.721 81.9834C191.385 81.7084 190.942 81.5709 190.392 81.5709C190.178 81.5709 189.969 81.5964 189.766 81.6473C189.572 81.6881 189.399 81.7543 189.246 81.8459C189.093 81.9376 188.971 82.0547 188.879 82.1973C188.788 82.3297 188.742 82.4876 188.742 82.6709ZM197.394 84.8708C197.424 85.6245 197.658 86.2305 198.096 86.6888C198.534 87.1472 199.145 87.3763 199.93 87.3763C200.286 87.3763 200.597 87.3356 200.862 87.2541C201.126 87.1726 201.35 87.0606 201.534 86.918C201.727 86.7754 201.88 86.6125 201.992 86.4291C202.114 86.2356 202.211 86.0319 202.282 85.818L203.413 86.1236C203.199 86.8263 202.802 87.4018 202.221 87.8499C201.651 88.2879 200.877 88.5069 199.899 88.5069C199.359 88.5069 198.86 88.4152 198.402 88.2319C197.954 88.0383 197.567 87.7684 197.241 87.4222C196.915 87.0759 196.66 86.6634 196.477 86.1847C196.294 85.706 196.202 85.1764 196.202 84.5958V84.2292C196.202 83.6996 196.294 83.2056 196.477 82.7473C196.67 82.289 196.935 81.8968 197.271 81.5709C197.608 81.2348 198 80.9751 198.448 80.7918C198.906 80.5983 199.4 80.5015 199.93 80.5015C200.551 80.5015 201.086 80.6186 201.534 80.8529C201.992 81.077 202.364 81.357 202.649 81.6931C202.944 82.0292 203.158 82.3959 203.291 82.7931C203.433 83.1903 203.505 83.557 203.505 83.8931V84.8708H197.394ZM199.93 81.632C199.594 81.632 199.278 81.6881 198.982 81.8001C198.697 81.9019 198.443 82.0496 198.219 82.2431C198.005 82.4366 197.826 82.6658 197.684 82.9306C197.551 83.1852 197.465 83.4653 197.424 83.7709H202.313C202.293 83.4449 202.211 83.1496 202.068 82.8848C201.936 82.62 201.758 82.3959 201.534 82.2126C201.32 82.0292 201.07 81.8867 200.785 81.7848C200.51 81.683 200.225 81.632 199.93 81.632ZM205.449 80.7154H208.199V81.7237H208.383C208.576 81.3061 208.851 81.0006 209.208 80.8071C209.564 80.6034 209.972 80.5015 210.43 80.5015C211.194 80.5015 211.81 80.751 212.278 81.2501C212.747 81.7492 212.996 82.4774 213.027 83.4348L211.774 83.6181C211.774 82.9153 211.606 82.4112 211.27 82.1056C210.934 81.7899 210.522 81.632 210.033 81.632C209.717 81.632 209.442 81.6931 209.208 81.8154C208.984 81.9376 208.795 82.1056 208.642 82.3195C208.49 82.5334 208.378 82.7829 208.306 83.0681C208.235 83.3533 208.199 83.6588 208.199 83.9847V87.193H210.124V88.293H205.266V87.193H207.008V81.8154H205.449V80.7154ZM218.898 78.4543C218.898 78.159 219 77.9094 219.204 77.7057C219.418 77.4919 219.672 77.3849 219.968 77.3849C220.263 77.3849 220.513 77.4919 220.716 77.7057C220.93 77.9094 221.037 78.159 221.037 78.4543C221.037 78.6784 220.976 78.8821 220.854 79.0654C220.731 79.2386 220.574 79.3659 220.38 79.4474V81.1432H219.555V79.4474C219.362 79.3659 219.204 79.2386 219.082 79.0654C218.959 78.8821 218.898 78.6784 218.898 78.4543ZM216.118 78.4543C216.118 78.159 216.22 77.9094 216.423 77.7057C216.637 77.4919 216.892 77.3849 217.187 77.3849C217.482 77.3849 217.732 77.4919 217.936 77.7057C218.15 77.9094 218.257 78.159 218.257 78.4543C218.257 78.6784 218.195 78.8821 218.073 79.0654C217.951 79.2386 217.793 79.3659 217.6 79.4474V81.1432H216.775V79.4474C216.581 79.3659 216.423 79.2386 216.301 79.0654C216.179 78.8821 216.118 78.6784 216.118 78.4543Z" fill="#E6755D"/>
<path d="M0 4.65012C0 2.23941 1.95426 0.285156 4.36496 0.285156H41.4599V12.1027C41.4599 14.5134 39.5056 16.4676 37.0949 16.4676H0V4.65012Z" fill="#DCDCDC"/>
<path d="M8.70767 13.5113V12.5728H9.31876C9.59521 12.5728 9.80618 12.4964 9.95168 12.3437C10.1045 12.1909 10.1808 11.9799 10.1808 11.7107V5.45793H11.1848V11.558C11.1848 12.0454 11.1157 12.431 10.9774 12.7147C10.8465 12.9984 10.6319 13.2021 10.3336 13.3258C10.0426 13.4495 9.65341 13.5113 9.16599 13.5113H8.70767ZM9.2642 6.28727V5.45793H11.1848V6.28727H9.2642ZM10.4318 4.43216C10.199 4.43216 10.0244 4.37033 9.90803 4.24665C9.79891 4.12298 9.74435 3.96657 9.74435 3.77742C9.74435 3.58827 9.79891 3.43186 9.90803 3.30819C10.0244 3.18451 10.199 3.12267 10.4318 3.12267C10.6646 3.12267 10.8356 3.18451 10.9447 3.30819C11.0611 3.43186 11.1193 3.58827 11.1193 3.77742C11.1193 3.96657 11.0611 4.12298 10.9447 4.24665C10.8356 4.37033 10.6646 4.43216 10.4318 4.43216ZM14.9974 11.4598C14.2335 11.4598 13.6406 11.2961 13.2187 10.9687C12.804 10.6413 12.5894 10.1939 12.5748 9.62647H13.557C13.5715 9.85199 13.6843 10.0666 13.8952 10.2703C14.1135 10.4667 14.4809 10.5649 14.9974 10.5649C15.463 10.5649 15.8195 10.474 16.0668 10.2921C16.3142 10.103 16.4378 9.87382 16.4378 9.60465C16.4378 9.36457 16.3469 9.17906 16.165 9.04811C15.9831 8.90989 15.6885 8.81895 15.2811 8.7753L14.6482 8.70983C14.0953 8.65163 13.6443 8.48794 13.2951 8.21877C12.9459 7.94232 12.7713 7.55675 12.7713 7.06205C12.7713 6.69103 12.8658 6.37457 13.055 6.11267C13.2441 5.8435 13.506 5.6398 13.8407 5.50158C14.1753 5.35608 14.5609 5.28333 14.9974 5.28333C15.6521 5.28333 16.1832 5.42883 16.5906 5.71983C16.998 6.01082 17.209 6.44368 17.2235 7.0184H16.2414C16.2341 6.78561 16.125 6.58918 15.914 6.42913C15.7103 6.26181 15.4048 6.17815 14.9974 6.17815C14.59 6.17815 14.2808 6.26181 14.0698 6.42913C13.8589 6.59646 13.7534 6.80743 13.7534 7.06205C13.7534 7.2803 13.8261 7.4549 13.9716 7.58585C14.1244 7.7168 14.3717 7.80046 14.7137 7.83683L15.3466 7.90231C15.9722 7.96778 16.4742 8.14238 16.8525 8.4261C17.2308 8.70255 17.4199 9.0954 17.4199 9.60465C17.4199 9.96839 17.3145 10.2921 17.1035 10.5758C16.8998 10.8523 16.6161 11.0705 16.2523 11.2306C15.8886 11.3834 15.4703 11.4598 14.9974 11.4598ZM21.5135 11.4816C21.0043 11.4816 20.5569 11.3943 20.1713 11.2197C19.7858 11.0451 19.4584 10.8159 19.1892 10.5322C18.9273 10.2412 18.7272 9.91747 18.589 9.561C18.4581 9.20452 18.3926 8.84078 18.3926 8.46975V8.27333C18.3926 7.90231 18.4617 7.53856 18.5999 7.18209C18.7382 6.81834 18.9419 6.49461 19.211 6.21089C19.4802 5.91989 19.8076 5.69073 20.1931 5.5234C20.5787 5.34881 21.0189 5.26151 21.5135 5.26151C22.0082 5.26151 22.4484 5.34881 22.834 5.5234C23.2195 5.69073 23.5469 5.91989 23.8161 6.21089C24.0852 6.49461 24.2889 6.81834 24.4272 7.18209C24.5654 7.53856 24.6345 7.90231 24.6345 8.27333V8.46975C24.6345 8.84078 24.5654 9.20452 24.4272 9.561C24.2962 9.91747 24.0962 10.2412 23.827 10.5322C23.5651 10.8159 23.2413 11.0451 22.8558 11.2197C22.4702 11.3943 22.0228 11.4816 21.5135 11.4816ZM21.5135 10.5431C21.95 10.5431 22.3211 10.4485 22.6266 10.2594C22.9394 10.063 23.1759 9.80107 23.3359 9.4737C23.5032 9.14632 23.5869 8.77894 23.5869 8.37154C23.5869 7.95687 23.5032 7.58585 23.3359 7.25848C23.1686 6.9311 22.9285 6.67284 22.6157 6.4837C22.3102 6.29455 21.9428 6.19997 21.5135 6.19997C21.0916 6.19997 20.7242 6.29455 20.4114 6.4837C20.0986 6.67284 19.8585 6.9311 19.6912 7.25848C19.5239 7.58585 19.4402 7.95687 19.4402 8.37154C19.4402 8.77894 19.5202 9.14632 19.6803 9.4737C19.8476 9.80107 20.084 10.063 20.3896 10.2594C20.7024 10.4485 21.0771 10.5431 21.5135 10.5431ZM26.0944 11.2852V5.45793H26.9237V7.95687H26.7928C26.7928 7.38215 26.8692 6.89837 27.0219 6.50552C27.182 6.1054 27.4221 5.80349 27.7421 5.59979C28.0622 5.38882 28.466 5.28333 28.9534 5.28333H28.9971C29.7318 5.28333 30.2738 5.51249 30.623 5.97081C30.9795 6.42913 31.1577 7.09115 31.1577 7.95687V11.2852H30.1101V7.73862C30.1101 7.28758 29.9828 6.92747 29.7282 6.65829C29.4736 6.38185 29.1244 6.24362 28.6806 6.24362C28.2223 6.24362 27.8513 6.38548 27.5676 6.66921C27.2838 6.95293 27.142 7.33123 27.142 7.8041V11.2852H26.0944Z" fill="black"/>
</svg>
