<svg width="49" height="49" viewBox="0 0 49 49" fill="none" xmlns="http://www.w3.org/2000/svg">
<path d="M0.0957031 24.5703C0.0957031 11.3155 10.8409 0.570312 24.0957 0.570312C37.3505 0.570312 48.0957 11.3155 48.0957 24.5703C48.0957 37.8251 37.3505 48.5703 24.0957 48.5703C10.8409 48.5703 0.0957031 37.8251 0.0957031 24.5703Z" fill="#F5B899"/>
<path d="M17.7652 22.4847L20.8274 18.3416C22.8067 15.6636 23.7964 14.3246 24.7198 14.6075C25.6431 14.8905 25.6431 16.5328 25.6431 19.8174V20.1271C25.6431 21.3118 25.6431 21.9042 26.0217 22.2757L26.0417 22.295C26.4284 22.6587 27.0449 22.6587 28.2779 22.6587C30.4968 22.6587 31.6063 22.6587 31.9812 23.3316C31.9874 23.3428 31.9935 23.354 31.9993 23.3653C32.3533 24.0487 31.7109 24.9178 30.4261 26.656L27.364 30.799C25.3846 33.477 24.3949 34.8161 23.4715 34.5331C22.5482 34.2501 22.5482 32.6078 22.5483 29.3231L22.5483 29.0136C22.5483 27.8289 22.5483 27.2365 22.1697 26.8649L22.1497 26.8457C21.763 26.482 21.1465 26.482 19.9135 26.482C17.6946 26.482 16.5852 26.482 16.2102 25.809C16.204 25.7979 16.198 25.7867 16.1921 25.7754C15.8381 25.092 16.4805 24.2229 17.7652 22.4847Z" fill="#2D0F00"/>
</svg>
