<svg width="48" height="48" viewBox="0 0 48 48" fill="none" xmlns="http://www.w3.org/2000/svg">
<path d="M0 24C0 10.7452 10.7452 0 24 0C37.2548 0 48 10.7452 48 24C48 37.2548 37.2548 48 24 48C10.7452 48 0 37.2548 0 24Z" fill="#F5B899"/>
<path d="M26 14.75C27.9068 14.75 29.2615 14.7516 30.2892 14.8898C31.2952 15.025 31.8749 15.2787 32.2981 15.7019C32.7852 16.189 32.9973 16.5667 33.1147 17.2398C33.2471 17.9986 33.25 19.0809 33.25 21C33.25 21.4142 33.5858 21.75 34 21.75C34.4142 21.75 34.75 21.4142 34.75 21L34.75 20.9037C34.7501 19.1045 34.7501 17.8857 34.5924 16.982C34.417 15.9767 34.0432 15.3257 33.3588 14.6412C32.6104 13.8929 31.6615 13.5608 30.489 13.4031C29.3498 13.25 27.8942 13.25 26.0564 13.25H26C25.5858 13.25 25.25 13.5858 25.25 14C25.25 14.4142 25.5858 14.75 26 14.75Z" fill="#2D0F00"/>
<path d="M14 26.25C14.4142 26.25 14.75 26.5858 14.75 27C14.75 28.9191 14.7529 30.0014 14.8853 30.7602C15.0028 31.4333 15.2148 31.811 15.7019 32.2981C16.1251 32.7213 16.7048 32.975 17.7109 33.1102C18.7385 33.2484 20.0932 33.25 22 33.25C22.4142 33.25 22.75 33.5858 22.75 34C22.75 34.4142 22.4142 34.75 22 34.75H21.9436C20.1058 34.75 18.6502 34.75 17.511 34.5969C16.3386 34.4392 15.3896 34.1071 14.6412 33.3588C13.9568 32.6743 13.583 32.0233 13.4076 31.018C13.2499 30.1143 13.25 28.8955 13.25 27.0964L13.25 27C13.25 26.5858 13.5858 26.25 14 26.25Z" fill="#2D0F00"/>
<path d="M34 26.25C34.4142 26.25 34.75 26.5858 34.75 27L34.75 27.0963C34.7501 28.8955 34.7501 30.1143 34.5924 31.018C34.417 32.0233 34.0432 32.6743 33.3588 33.3588C32.6104 34.1071 31.6615 34.4392 30.489 34.5969C29.3498 34.75 27.8942 34.75 26.0564 34.75H26C25.5858 34.75 25.25 34.4142 25.25 34C25.25 33.5858 25.5858 33.25 26 33.25C27.9068 33.25 29.2615 33.2484 30.2892 33.1102C31.2952 32.975 31.8749 32.7213 32.2981 32.2981C32.7852 31.811 32.9973 31.4333 33.1147 30.7602C33.2471 30.0014 33.25 28.9191 33.25 27C33.25 26.5858 33.5858 26.25 34 26.25Z" fill="#2D0F00"/>
<path d="M21.9436 13.25H22C22.4142 13.25 22.75 13.5858 22.75 14C22.75 14.4142 22.4142 14.75 22 14.75C20.0932 14.75 18.7385 14.7516 17.7109 14.8898C16.7048 15.025 16.1251 15.2787 15.7019 15.7019C15.2148 16.189 15.0028 16.5667 14.8853 17.2398C14.7529 17.9986 14.75 19.0809 14.75 21C14.75 21.4142 14.4142 21.75 14 21.75C13.5858 21.75 13.25 21.4142 13.25 21L13.25 20.9037C13.25 19.1045 13.2499 17.8857 13.4076 16.982C13.583 15.9767 13.9568 15.3257 14.6412 14.6412C15.3896 13.8929 16.3386 13.5608 17.511 13.4031C18.6502 13.25 20.1058 13.25 21.9436 13.25Z" fill="#2D0F00"/>
<path d="M24 22.75C23.3096 22.75 22.75 23.3096 22.75 24C22.75 24.6904 23.3096 25.25 24 25.25C24.6904 25.25 25.25 24.6904 25.25 24C25.25 23.3096 24.6904 22.75 24 22.75Z" fill="#2D0F00"/>
<path fill-rule="evenodd" clip-rule="evenodd" d="M17.8924 26.0598C17.2975 25.3697 17 25.0246 17 24C17 22.9754 17.2975 22.6303 17.8924 21.9402C19.0804 20.5622 21.0727 19 24 19C26.9273 19 28.9196 20.5622 30.1076 21.9402C30.7025 22.6303 31 22.9754 31 24C31 25.0246 30.7025 25.3697 30.1076 26.0598C28.9196 27.4378 26.9273 29 24 29C21.0727 29 19.0804 27.4378 17.8924 26.0598ZM21.25 24C21.25 22.4812 22.4812 21.25 24 21.25C25.5188 21.25 26.75 22.4812 26.75 24C26.75 25.5188 25.5188 26.75 24 26.75C22.4812 26.75 21.25 25.5188 21.25 24Z" fill="#2D0F00"/>
</svg>
