<svg width="24" height="24" viewBox="0 0 24 24" fill="none" xmlns="http://www.w3.org/2000/svg">
<circle cx="12" cy="12" r="11" fill="white"/>
<g clip-path="url(#clip0_4003_2819)">
<path d="M13.694 6.06547C13.1484 5.16047 11.8365 5.16047 11.2915 6.06547L9.31525 9.44984C10.8513 10.2167 12.0951 11.3146 13.0466 12.7437C13.9981 14.1727 14.5314 15.7437 14.6465 17.4567H13.2584C13.1435 15.9886 12.6718 14.6458 11.8433 13.4283C11.0148 12.2108 9.93881 11.2792 8.61525 10.6336L6.7865 13.7961C7.52962 14.1294 8.14724 14.6205 8.63938 15.2695C9.13153 15.9184 9.43785 16.6456 9.55837 17.4511H6.3715C6.28929 17.4454 6.22811 17.4066 6.18796 17.3347C6.14781 17.2627 6.1469 17.1903 6.18525 17.1173L7.06837 15.6161C6.91886 15.4913 6.75935 15.381 6.58984 15.2851C6.42034 15.1892 6.2436 15.1093 6.05962 15.0455L5.18525 16.5467C4.99372 16.8752 4.94764 17.223 5.04702 17.59C5.1464 17.9571 5.36164 18.2341 5.69275 18.4211C5.79639 18.4794 5.90569 18.5239 6.02066 18.5543C6.13562 18.5848 6.25257 18.6004 6.3715 18.6011H10.7359C10.8183 17.584 10.6454 16.6123 10.2172 15.686C9.78904 14.7598 9.16089 13.9986 8.33275 13.4023L9.0265 12.2011C10.0719 12.919 10.8706 13.8488 11.4225 14.9906C11.9744 16.1324 12.207 17.3359 12.1202 18.6011H15.8171C15.9046 16.6842 15.5084 14.8732 14.6285 13.1679C13.7485 11.4627 12.502 10.0904 10.889 9.05109L12.2915 6.64797C12.324 6.59355 12.3709 6.55842 12.4323 6.54259C12.4937 6.52676 12.5517 6.5348 12.6065 6.56672C12.7659 6.65422 18.7002 17.0092 18.8115 17.1292C18.8315 17.165 18.8411 17.2033 18.8405 17.2442C18.8398 17.2851 18.8289 17.3231 18.8078 17.3582C18.7867 17.3933 18.7582 17.4207 18.7223 17.4404C18.6864 17.4601 18.648 17.4695 18.6071 17.4686H17.1777C17.1959 17.8511 17.1959 18.233 17.1777 18.613H18.6134C18.8604 18.6143 19.0911 18.5537 19.3056 18.431C19.52 18.3084 19.6892 18.1402 19.8133 17.9266C19.9373 17.7129 19.9995 17.4826 19.9997 17.2356C20 16.9885 19.9383 16.7581 19.8146 16.5442L13.694 6.06547Z" fill="#362D59"/>
</g>
<defs>
<clipPath id="clip0_4003_2819">
<rect width="15" height="15" fill="white" transform="translate(5 4.5)"/>
</clipPath>
</defs>
</svg>
