<svg width="16" height="16" viewBox="0 0 16 16" fill="none" xmlns="http://www.w3.org/2000/svg">
<g clip-path="url(#clip0_4003_2726)">
<path d="M8.42857 6L7 8H9L7.57143 10" stroke="#7C7C7C" stroke-width="1.5" stroke-linecap="round" stroke-linejoin="round"/>
<path d="M2.66699 8.00033C2.66699 5.48617 2.66699 4.22909 3.44804 3.44804C4.22909 2.66699 5.48617 2.66699 8.00033 2.66699C10.5145 2.66699 11.7716 2.66699 12.5526 3.44804C13.3337 4.22909 13.3337 5.48617 13.3337 8.00033C13.3337 10.5145 13.3337 11.7716 12.5526 12.5526C11.7716 13.3337 10.5145 13.3337 8.00033 13.3337C5.48617 13.3337 4.22909 13.3337 3.44804 12.5526C2.66699 11.7716 2.66699 10.5145 2.66699 8.00033Z" stroke="#7C7C7C" stroke-width="1.5" stroke-linecap="round" stroke-linejoin="round"/>
<path d="M2.66699 8H1.33366" stroke="#7C7C7C" stroke-width="1.5" stroke-linecap="round" stroke-linejoin="round"/>
<path d="M14.667 8H13.3337" stroke="#7C7C7C" stroke-width="1.5" stroke-linecap="round" stroke-linejoin="round"/>
<path d="M2.66699 6L1.33366 6" stroke="#7C7C7C" stroke-width="1.5" stroke-linecap="round" stroke-linejoin="round"/>
<path d="M14.667 6H13.3337" stroke="#7C7C7C" stroke-width="1.5" stroke-linecap="round" stroke-linejoin="round"/>
<path d="M2.66699 10H1.33366" stroke="#7C7C7C" stroke-width="1.5" stroke-linecap="round" stroke-linejoin="round"/>
<path d="M14.667 10H13.3337" stroke="#7C7C7C" stroke-width="1.5" stroke-linecap="round" stroke-linejoin="round"/>
<path d="M8 13.333L8 14.6663" stroke="#7C7C7C" stroke-width="1.5" stroke-linecap="round" stroke-linejoin="round"/>
<path d="M8 1.33301L8 2.66634" stroke="#7C7C7C" stroke-width="1.5" stroke-linecap="round" stroke-linejoin="round"/>
<path d="M6 13.333L6 14.6663" stroke="#7C7C7C" stroke-width="1.5" stroke-linecap="round" stroke-linejoin="round"/>
<path d="M6 1.33301L6 2.66634" stroke="#7C7C7C" stroke-width="1.5" stroke-linecap="round" stroke-linejoin="round"/>
<path d="M10 13.333L10 14.6663" stroke="#7C7C7C" stroke-width="1.5" stroke-linecap="round" stroke-linejoin="round"/>
<path d="M10 1.33301L10 2.66634" stroke="#7C7C7C" stroke-width="1.5" stroke-linecap="round" stroke-linejoin="round"/>
</g>
<defs>
<clipPath id="clip0_4003_2726">
<rect width="16" height="16" fill="white"/>
</clipPath>
</defs>
</svg>
