<svg width="48" height="48" viewBox="0 0 48 48" fill="none" xmlns="http://www.w3.org/2000/svg">
<path d="M0 24C0 10.7452 10.7452 0 24 0C37.2548 0 48 10.7452 48 24C48 37.2548 37.2548 48 24 48C10.7452 48 0 37.2548 0 24Z" fill="#F5B899"/>
<path d="M23.6367 18C28.3311 18 32.1367 21.8056 32.1367 26.5C32.1367 31.1944 28.3311 35 23.6367 35C18.9423 35 15.1367 31.1944 15.1367 26.5C15.1367 21.8056 18.9423 18 23.6367 18ZM22.6035 25.3164C22.1341 25.3164 21.7529 25.6976 21.7529 26.167C21.7531 26.6363 22.1342 27.0166 22.6035 27.0166H24.8701C25.3394 27.0166 25.7196 26.6363 25.7197 26.167C25.7197 25.6976 25.3395 25.3164 24.8701 25.3164H22.6035ZM21.4697 20.5C20.844 20.5003 20.3369 21.2615 20.3369 22.2002C20.337 23.1388 20.844 23.9001 21.4697 23.9004C22.0956 23.9004 22.6035 23.139 22.6035 22.2002C22.6035 21.2613 22.0956 20.5 21.4697 20.5ZM26.0029 20.5C25.3772 20.5004 24.8701 21.2615 24.8701 22.2002C24.8702 23.1388 25.3772 23.9 26.0029 23.9004C26.6288 23.9004 27.1367 23.139 27.1367 22.2002C27.1367 21.2613 26.6289 20.5 26.0029 20.5ZM32.1514 13.1689C32.3767 12.9437 32.7425 12.9437 32.9678 13.1689C33.1931 13.3942 33.1931 13.76 32.9678 13.9854L31.4521 15.5L32.9678 17.0156C33.1928 17.2409 33.193 17.6058 32.9678 17.8311C32.7425 18.0564 32.3767 18.0564 32.1514 17.8311L30.6367 16.3164L29.1221 17.8311C28.8968 18.0564 28.531 18.0564 28.3057 17.8311C28.0805 17.6058 28.0806 17.2409 28.3057 17.0156L29.8213 15.5L28.3057 13.9854C28.0804 13.76 28.0804 13.3942 28.3057 13.1689C28.531 12.9437 28.8968 12.9436 29.1221 13.1689L30.6367 14.6846L32.1514 13.1689ZM19.3135 13.1689C19.5547 12.9436 19.9463 12.9436 20.1875 13.1689C20.4287 13.3943 20.4287 13.7601 20.1875 13.9854L17.0723 17.7236C16.8311 17.9489 16.4394 17.9489 16.1982 17.7236L14.5342 16.0859C14.2934 15.8606 14.2932 15.4957 14.5342 15.2705C14.7754 15.0452 15.167 15.0452 15.4082 15.2705L16.6357 16.5L19.3135 13.1689Z" fill="#2D0F00"/>
</svg>
